<?xml version="1.0" encoding="UTF-8"?>
<svg xmlns="http://www.w3.org/2000/svg" xmlns:xlink="http://www.w3.org/1999/xlink" width="375pt" height="374.999991pt" viewBox="0 0 375 374.999991" version="1.2">
<g id="surface1">
<path style=" stroke:none;fill-rule:nonzero;fill:rgb(0%,0%,0%);fill-opacity:1;" d="M 321.738281 53.265625 C 287.386719 18.914062 241.726562 0 193.148438 0 C 193.144531 0 193.132812 0 193.128906 0 C 169.105469 0.00390625 145.6875 4.65625 123.542969 13.832031 C 101.390625 23.003906 81.546875 36.273438 64.554688 53.265625 C 30.210938 87.609375 11.296875 133.277344 11.296875 181.851562 C 11.296875 210.820312 18.285156 239.609375 31.527344 265.257812 L 0.960938 352.582031 C -1.191406 358.742188 0.332031 365.4375 4.949219 370.050781 C 8.179688 373.285156 12.429688 375 16.804688 375 C 18.675781 375 20.570312 374.683594 22.417969 374.039062 L 109.742188 343.472656 C 135.390625 356.71875 164.179688 363.707031 193.148438 363.707031 C 241.722656 363.707031 287.386719 344.789062 321.738281 310.445312 C 356.082031 276.097656 375 230.429688 375 181.855469 C 375 133.277344 356.085938 87.609375 321.738281 53.265625 Z M 306.183594 294.890625 C 275.992188 325.085938 235.84375 341.710938 193.148438 341.710938 C 167.027344 341.710938 141.078125 335.25 118.101562 323.023438 C 113.9375 320.808594 109.011719 320.429688 104.59375 321.976562 L 25.257812 349.742188 L 53.027344 270.40625 C 54.574219 265.980469 54.191406 261.058594 51.976562 256.894531 C 39.75 233.925781 33.289062 207.976562 33.289062 181.851562 C 33.289062 139.15625 49.917969 99.007812 80.109375 68.816406 C 110.296875 38.625 150.4375 22 193.132812 21.992188 L 193.148438 21.992188 C 235.847656 21.992188 275.992188 38.621094 306.183594 68.816406 C 336.378906 99.007812 353.007812 139.152344 353.007812 181.851562 C 353.007812 224.554688 336.378906 264.699219 306.183594 294.890625 Z M 260.730469 198.097656 C 252.363281 189.730469 238.753906 189.730469 230.386719 198.097656 L 221.238281 207.246094 C 198.519531 194.867188 180.132812 176.480469 167.75 153.761719 L 176.898438 144.613281 C 185.269531 136.246094 185.269531 122.636719 176.898438 114.269531 L 152.242188 89.613281 C 143.878906 81.246094 130.265625 81.246094 121.898438 89.613281 L 102.175781 109.335938 C 90.878906 120.636719 90.3125 140.058594 100.585938 164.03125 C 109.507812 184.84375 125.832031 207.722656 146.554688 228.445312 C 167.277344 249.167969 190.15625 265.492188 210.96875 274.414062 C 222.359375 279.292969 232.71875 281.726562 241.671875 281.726562 C 251.5625 281.726562 259.730469 278.753906 265.664062 272.824219 L 285.386719 253.097656 L 285.386719 253.101562 C 289.441406 249.046875 291.671875 243.660156 291.671875 237.929688 C 291.671875 232.195312 289.441406 226.808594 285.386719 222.757812 Z M 250.109375 257.273438 C 246.886719 260.496094 236.96875 261.625 219.636719 254.199219 C 201.332031 246.355469 180.898438 231.683594 162.109375 212.890625 C 143.316406 194.101562 128.648438 173.671875 120.804688 155.367188 C 113.375 138.03125 114.503906 128.113281 117.726562 124.890625 L 137.074219 105.542969 L 160.96875 129.441406 L 149.515625 140.898438 C 144.339844 146.074219 143.089844 153.929688 146.410156 160.441406 C 161.46875 189.964844 185.035156 213.53125 214.558594 228.589844 C 221.074219 231.910156 228.925781 230.664062 234.105469 225.484375 L 245.558594 214.03125 L 269.457031 237.929688 Z M 250.109375 257.273438 "/>
</g>
</svg>
