<?xml version="1.0" encoding="UTF-8"?>
<svg xmlns="http://www.w3.org/2000/svg" xmlns:xlink="http://www.w3.org/1999/xlink" width="375pt" height="374.999991pt" viewBox="0 0 375 374.999991" version="1.2">
<defs>
<clipPath id="clip1">
  <path d="M 0 51.136719 L 375 51.136719 L 375 316 L 0 316 Z M 0 51.136719 "/>
</clipPath>
</defs>
<g id="surface1">
<g clip-path="url(#clip1)" clip-rule="nonzero">
<path style=" stroke:none;fill-rule:nonzero;fill:rgb(0%,0%,0%);fill-opacity:1;" d="M 342.035156 51.136719 L 32.964844 51.136719 C 14.753906 51.136719 0.0078125 65.992188 0.0078125 84.128906 L 0.0078125 282.078125 C 0.0078125 300.324219 14.863281 315.070312 32.964844 315.070312 L 342.035156 315.070312 C 360.09375 315.070312 374.992188 300.386719 374.992188 282.078125 L 374.992188 84.128906 C 374.992188 66.023438 360.304688 51.136719 342.035156 51.136719 Z M 337.421875 73.132812 C 330.6875 79.835938 214.804688 195.226562 210.804688 199.210938 C 204.578125 205.441406 196.304688 208.871094 187.5 208.871094 C 178.695312 208.871094 170.421875 205.441406 164.175781 199.1875 C 161.484375 196.507812 46.882812 82.394531 37.578125 73.132812 Z M 21.976562 277.601562 L 21.976562 88.617188 L 116.925781 183.164062 Z M 37.59375 293.078125 L 132.503906 198.675781 L 148.660156 214.761719 C 159.035156 225.148438 172.828125 230.867188 187.5 230.867188 C 202.171875 230.867188 215.964844 225.148438 226.320312 214.78125 L 242.496094 198.675781 L 337.40625 293.078125 Z M 353.023438 277.601562 L 258.074219 183.164062 L 353.023438 88.617188 Z M 353.023438 277.601562 "/>
</g>
</g>
</svg>
