<?xml version="1.0" encoding="UTF-8"?>
<svg xmlns="http://www.w3.org/2000/svg" xmlns:xlink="http://www.w3.org/1999/xlink" width="375pt" height="374.999991pt" viewBox="0 0 375 374.999991" version="1.2">
<g id="surface1">
<path style=" stroke:none;fill-rule:nonzero;fill:rgb(0%,0%,0%);fill-opacity:1;" d="M 276.042969 99.242188 C 282.207031 99.242188 287.203125 104.242188 287.203125 110.40625 C 287.203125 116.566406 282.207031 121.566406 276.042969 121.566406 L 143.066406 121.566406 C 136.902344 121.566406 131.90625 116.570312 131.90625 110.40625 C 131.90625 104.242188 136.902344 99.242188 143.066406 99.242188 Z M 276.042969 145.144531 C 282.207031 145.144531 287.203125 150.144531 287.203125 156.304688 C 287.203125 162.46875 282.207031 167.46875 276.042969 167.46875 L 143.066406 167.46875 C 136.902344 167.46875 131.90625 162.46875 131.90625 156.304688 C 131.90625 150.144531 136.902344 145.144531 143.066406 145.144531 Z M 224.855469 191.046875 C 231.019531 191.046875 236.015625 196.042969 236.015625 202.207031 C 236.015625 208.371094 231.019531 213.367188 224.855469 213.367188 L 143.066406 213.367188 C 136.902344 213.367188 131.90625 208.371094 131.90625 202.207031 C 131.90625 196.042969 136.902344 191.046875 143.066406 191.046875 Z M 373.648438 291.382812 L 351.871094 227.996094 C 362.367188 206.535156 367.917969 182.664062 367.953125 158.648438 C 368.019531 116.890625 351.863281 77.410156 322.460938 47.476562 C 293.054688 17.535156 253.867188 0.683594 212.121094 0.0195312 C 168.832031 -0.664062 128.140625 15.804688 97.550781 46.394531 C 68.050781 75.890625 51.691406 114.777344 51.171875 156.332031 C 22.101562 178.21875 4.941406 212.347656 4.996094 248.800781 C 5.023438 265.859375 8.863281 282.8125 16.136719 298.148438 L 1.136719 341.804688 C -1.441406 349.3125 0.441406 357.460938 6.054688 363.070312 C 10.003906 367.019531 15.207031 369.125 20.5625 369.125 C 22.816406 369.125 25.097656 368.753906 27.320312 367.988281 L 70.976562 352.984375 C 86.3125 360.261719 103.265625 364.101562 120.324219 364.128906 C 120.386719 364.128906 120.445312 364.128906 120.507812 364.128906 C 157.5 364.125 191.890625 346.523438 213.699219 316.738281 C 236.394531 316.140625 258.847656 310.648438 279.148438 300.714844 L 342.535156 322.496094 C 345.179688 323.402344 347.886719 323.847656 350.5625 323.847656 C 356.925781 323.847656 363.113281 321.347656 367.808594 316.652344 C 374.476562 309.984375 376.714844 300.300781 373.648438 291.382812 Z M 120.503906 341.804688 C 120.457031 341.804688 120.40625 341.804688 120.359375 341.804688 C 105.261719 341.785156 90.269531 338.0625 77.003906 331.042969 C 74.277344 329.601562 71.074219 329.351562 68.15625 330.351562 L 23.390625 345.738281 L 38.773438 300.96875 C 39.773438 298.050781 39.523438 294.851562 38.082031 292.125 C 31.0625 278.859375 27.34375 263.863281 27.320312 248.765625 C 27.28125 224.480469 36.730469 201.460938 53.25 184.222656 C 58.648438 217.121094 74.324219 247.4375 98.628906 271.308594 C 122.753906 295 153.078125 310.089844 185.796875 315.019531 C 168.519531 332.046875 145.230469 341.804688 120.503906 341.804688 Z M 352.023438 300.867188 C 351.386719 301.503906 350.636719 301.675781 349.789062 301.386719 L 281.929688 278.066406 C 280.753906 277.664062 279.527344 277.460938 278.304688 277.460938 C 276.503906 277.460938 274.710938 277.898438 273.085938 278.757812 C 253.710938 289.007812 231.816406 294.445312 209.769531 294.476562 C 209.695312 294.476562 209.632812 294.476562 209.558594 294.476562 C 135.683594 294.476562 74.664062 234.46875 73.492188 160.609375 C 72.902344 123.414062 87.054688 88.457031 113.332031 62.175781 C 139.613281 35.894531 174.578125 21.753906 211.769531 22.339844 C 285.695312 23.511719 345.746094 84.644531 345.632812 158.613281 C 345.597656 180.664062 340.164062 202.554688 329.914062 221.929688 C 328.472656 224.65625 328.222656 227.859375 329.222656 230.777344 L 352.539062 298.632812 C 352.832031 299.484375 352.65625 300.234375 352.023438 300.867188 Z M 352.023438 300.867188 "/>
</g>
</svg>
