<?xml version="1.0" encoding="UTF-8"?>
<svg xmlns="http://www.w3.org/2000/svg" xmlns:xlink="http://www.w3.org/1999/xlink" width="375pt" height="374.999991pt" viewBox="0 0 375 374.999991" version="1.2">
<g id="surface1">
<path style=" stroke:none;fill-rule:nonzero;fill:rgb(0%,0%,0%);fill-opacity:1;" d="M 130.457031 323.261719 L 365.339844 87.316406 C 378.21875 74.4375 378.222656 53.589844 365.339844 40.707031 L 334.265625 9.636719 C 321.417969 -3.214844 300.507812 -3.214844 287.640625 9.652344 C 217.183594 80.429688 123.035156 175.003906 52.574219 245.78125 C 51.753906 246.605469 50.871094 247.84375 50.332031 249.050781 C 49.820312 250.195312 1.199219 358.941406 0.933594 359.542969 C -2.269531 366.859375 3.171875 374.929688 11 374.929688 C 11.003906 374.929688 11.003906 374.929688 11.007812 374.929688 L 276.121094 374.929688 C 282.1875 374.929688 287.105469 370.007812 287.105469 363.941406 C 287.105469 357.875 282.1875 352.957031 276.121094 352.957031 L 64.035156 352.957031 L 126.871094 325.761719 C 128.210938 325.175781 129.484375 324.269531 130.457031 323.261719 Z M 303.195312 25.171875 C 307.476562 20.886719 314.445312 20.886719 318.730469 25.171875 L 349.804688 56.246094 C 354.03125 60.472656 354.167969 67.414062 349.785156 71.796875 L 326.550781 95.136719 L 279.941406 48.527344 Z M 264.441406 64.097656 L 311.050781 110.707031 L 280.046875 141.851562 L 233.4375 95.242188 Z M 32.554688 342.640625 L 63.875 272.585938 L 103.308594 312.015625 Z M 75.878906 253.515625 L 217.9375 110.8125 L 264.546875 157.421875 L 122.488281 300.125 Z M 75.878906 253.515625 "/>
</g>
</svg>
