<?xml version="1.0" encoding="UTF-8"?>
<svg width="24px" height="24px" viewBox="0 0 24 24" version="1.1" xmlns="http://www.w3.org/2000/svg" xmlns:xlink="http://www.w3.org/1999/xlink">
    <!-- Generator: Sketch 51.3 (57544) - http://www.bohemiancoding.com/sketch -->
    <title>Combined Shape</title>
    <desc>Created with Sketch.</desc>
    <defs></defs>
    <g id="Final-Design" stroke="none" stroke-width="1" fill="none" fill-rule="evenodd">
        <g id="Menu-1---Connect-Via" transform="translate(-24.000000, -718.000000)" fill="#F13C31" fill-rule="nonzero">
            <g id="Group-9" transform="translate(0.000000, 426.000000)">
                <g id="Group-8" transform="translate(24.000000, 279.000000)">
                    <path d="M20.5911259,16.4088741 C18.3927619,14.2105101 15.470582,13 12.3614515,13 C12.3612684,13 12.360536,13 12.3603529,13 C10.8226333,13.0001831 9.32409833,13.2979126 7.90667907,13.8851317 C6.48907672,14.4723509 5.21905734,15.3214109 4.13159407,16.4088741 C1.93341318,18.607055 0.722903053,21.5297842 0.722903053,24.6385485 C0.722903053,26.4924911 1.17022967,28.3348981 2.01782478,29.9764385 L0.061526175,35.565183 C-0.0763522154,35.959409 0.0212429765,36.3878757 0.316775146,36.6832249 C0.523501232,36.890134 0.795595904,36.9999973 1.07538103,36.9999973 C1.19531511,36.9999973 1.31653094,36.9798556 1.43481703,36.9384738 L7.02356154,34.9823583 C8.66510186,35.8299534 10.5075089,36.27728 12.3614515,36.27728 C15.4702158,36.27728 18.3927619,35.0665868 20.5911259,32.8684059 C22.7893068,30.670225 24,27.7474959 24,24.6387316 C24,21.5297842 22.7894899,18.607055 20.5911259,16.4088741 Z M19.5957647,31.8730447 C17.6634528,33.8055396 15.0941172,34.8695654 12.3614515,34.8695654 C10.6896988,34.8695654 9.0289324,34.4561133 7.55859563,33.6735206 C7.2919941,33.531797 6.97686963,33.507444 6.69397173,33.606504 L1.61645764,35.3835424 L3.39367914,30.3060283 C3.49273917,30.0227642 3.46820302,29.7076397 3.32647943,29.4412213 C2.54406986,27.9712507 2.13043464,26.3104843 2.13043464,24.6385485 C2.13043464,21.9058828 3.1946435,19.3365472 5.12695528,17.4042353 C7.05908397,15.4721066 9.62805342,14.4078978 12.360536,14.4075316 L12.3614515,14.4075316 C15.0943003,14.4075316 17.6634528,15.4717405 19.5957647,17.4042353 C21.5282595,19.3365472 22.5924684,21.9056997 22.5924684,24.6385485 C22.5924684,27.3713973 21.5282595,29.9407329 19.5957647,31.8730447 Z M16.6867684,25.6782212 C16.1513681,25.1428209 15.2801523,25.1428209 14.7447521,25.6782212 L14.1591808,26.2637925 C12.7051405,25.4714952 11.5285048,24.2948595 10.7360245,22.8408192 L11.3215957,22.2552479 C11.8571791,21.7198477 11.8571791,20.8486319 11.3215957,20.3132316 L9.74359293,18.7352288 C9.2081926,18.1998285 8.3369769,18.1998285 7.80157657,18.7352288 L6.53924759,19.9975578 C5.81616419,20.7206412 5.78009243,21.9637441 6.4376241,23.4979846 C7.00854686,24.8300768 8.05334657,26.2941879 9.3795793,27.6204207 C10.7058121,28.9466534 12.1699232,29.9914531 13.5020154,30.5623759 C14.2309581,30.8747538 14.893983,31.0305766 15.4669199,31.0305766 C16.0999155,31.0305766 16.6228646,30.84033 17.0024422,30.4607524 L18.2647712,29.1982403 L18.2647712,29.1984234 C18.5242316,28.938963 18.6670538,28.5941755 18.6670538,28.2274152 C18.6670538,27.860472 18.5242316,27.5156844 18.2647712,27.2564071 L16.6867684,25.6782212 Z M16.007081,29.4653912 C15.8007211,29.671751 15.1660777,29.7440777 14.0566418,29.2687359 C12.8851331,28.7666608 11.5775771,27.8276961 10.3749405,26.6250595 C9.17230393,25.4224229 8.23352233,24.11505 7.73144717,22.9435413 C7.25592234,21.8341055 7.328249,21.1992789 7.5346088,20.992919 L8.77276787,19.7547599 L10.3020646,21.2842398 L9.56909345,22.017394 C9.23767256,22.3488148 9.15765549,22.8514393 9.37024095,23.2681873 C10.3339249,25.1578355 11.8421645,26.6660751 13.7318127,27.629759 C14.1487438,27.8423445 14.6513683,27.7625105 14.9827891,27.4309066 L15.7157602,26.6979354 L17.2452401,28.2274152 L16.007081,29.4653912 Z" id="Combined-Shape"></path>
                </g>
            </g>
        </g>
    </g>
</svg>