<svg xmlns="http://www.w3.org/2000/svg" width="1366.421" height="1012.85" viewBox="0 0 1366.421 1012.85">
  <g id="Group_13352" data-name="Group 13352" transform="translate(-11.332 -14.15)">
    <g id="Group_13266" data-name="Group 13266" transform="translate(-0.25)">
      <path id="Path_119609" data-name="Path 119609" d="M65.646,858.439c19.909,29.293-45.489-56.512-55.72-90.56-11.323-37.684-6.775-84.79,16.717-121.69,22.45-35.267,55.244-50.283,75.221-59.43,42.28-19.36,55.672-8.521,89.151-22.64,47.009-19.824,84.577-68.172,97.51-116.03,19.5-72.168-25.566-111.615,2.785-164.14,18.986-35.171,57.82-49.667,69.652-53.77,33.819-11.73,46.9-.142,89.151-5.66,36.187-4.726,60.409-17.639,105.868-42.45,59.218-32.321,69.324-47.892,111.44-73.58,46.494-28.359,145.182-88.554,234.024-56.6,42.461,15.274,70.925,47.369,89.151,67.92,41.6,46.91,28.611,63.253,66.864,107.54,11.4,13.2,58.963,68.268,133.726,90.56,27.884,8.315,48.045,8.637,69.652,28.3,3.656,3.328,29.336,27.389,33.431,65.09,2.507,23.076-5.235,31.339-16.717,73.58-13.839,50.92-20.758,76.379-13.929,99.05,11.708,38.879,46.245,28.988,78.009,73.58,41.887,58.807,30.222,143.951,13.929,175.46-2.06,3.982-19.536,36.781-19.5,36.79Z" transform="translate(7.582 78.291)" fill="#eac3f4" opacity="0.5"/>
    </g>
    <g id="Group_13331" data-name="Group 13331" transform="translate(62.272 319.789)">
      <path id="Path_119610" data-name="Path 119610" d="M680.647,455.635c.447-.059,1.888-2.606,1.888-2.606s-242.763-3.232-589.26-7.85c-1.721-9.291-6.885-41.9,5.465-73.792,3.639-9.4,13.53-34.948,31.985-39.017,9.512-2.1,20.877,1.6,28.925,11.071,7.126,8.377,7.361,16.222,10.556,16.023,8.629-.541,4.647-57.639,27.615-83.958,11.014-12.622,27.584-17.424,40.39-9.837,14.832,8.787,20.416,31.7,24.372,47.935,10.245,42.06,2.587,76.868,9,79.331,4.836,1.859,8.92-18.075,22.668-31.263s26.761-9.212,44.038-9.772c40.166-1.3,39.566-23.622,73.617-25.079,42.207-1.808,52.344,32.092,79.871,17.255,19.391-10.451,17.441-28.934,41.171-41.491,5.634-2.983,36.326-19.646,54.724.974,10.055,11.272,5.479,21.355,14.758,38,19.335,34.685,50.991,12.053,67.2,42.628C682.653,408.747,679.464,455.785,680.647,455.635Z" transform="translate(103.776 159.744)" fill="#bb60fc"/>
      <path id="Path_119611" data-name="Path 119611" d="M23.888,435.894c-.444-.048-1.888-2.2-1.888-2.2s242.763-2.722,589.263-6.611c1.718-7.828,6.883-35.293-5.468-62.158-3.639-7.918-13.53-29.435-31.985-32.862-9.512-1.766-20.874,1.353-28.925,9.325-7.126,7.055-7.361,13.663-10.556,13.5-8.629-.456-4.647-48.549-27.615-70.719-11.014-10.629-27.584-14.676-40.39-8.286-14.832,7.4-20.413,26.7-24.369,40.378-10.247,35.426-2.589,64.745-9,66.819-4.836,1.565-8.917-15.225-22.668-26.333s-26.76-7.76-44.038-8.232c-40.166-1.1-39.566-19.895-73.614-21.123-42.209-1.522-52.344,27.032-79.874,14.535-19.391-8.8-17.441-24.372-41.168-34.948-5.637-2.516-36.329-16.55-54.724.818-10.058,9.495-5.482,17.988-14.761,32.01-19.335,29.214-50.991,10.151-67.2,35.9C21.881,396.4,25.071,436.021,23.888,435.894Z" transform="translate(-22 179.485)" fill="#ca97f7"/>
      <path id="Path_119612" data-name="Path 119612" d="M425.646,411.374c-7.584-3.13-8.75.979-25.88,0-11.365-.648-17.045-.974-21.57-5.165-9.254-8.575-8.773-25.7-8.626-30.986a63.333,63.333,0,0,1,12.942-36.153c10.239-13.59,15.616-8.589,25.88-20.656,14.226-16.731,7.672-30.785,21.567-46.483,10.426-11.776,23.248-14.187,30.2-15.494,6.922-1.3,29.341-5.513,43.135,10.329,7.627,8.759,12.064,23.011,12.942,25.824,3.056,9.812,1.729,11.47,4.313,15.494,6.218,9.676,16.666,4.4,34.509,10.329a61.264,61.264,0,0,1,30.2,20.656,58.8,58.8,0,0,1,12.942,30.988c.365,3.673,2.25,26.177-8.629,36.15-7.539,6.917-14.277,1.449-21.568,10.329-4.446,5.417-8.781,15.78-8.629,15.494H447.213C429.605,413.01,425.646,411.374,425.646,411.374Z" transform="translate(613.952 146.768)" fill="#5634e8"/>
      <path id="Path_119613" data-name="Path 119613" d="M468.792,397.123c-5.261-2.173-6.07.679-17.956,0-7.887-.45-11.829-.676-14.968-3.586-6.421-5.949-6.087-17.835-5.986-21.5a43.967,43.967,0,0,1,8.98-25.085c7.106-9.432,10.836-5.96,17.959-14.334,9.871-11.609,5.323-21.361,14.965-32.254,7.233-8.173,16.131-9.846,20.953-10.751,4.8-.9,20.359-3.826,29.93,7.168,5.292,6.076,8.371,15.967,8.98,17.917,2.12,6.809,1.2,7.958,2.994,10.751,4.313,6.716,11.561,3.056,23.945,7.168a42.518,42.518,0,0,1,20.95,14.334,40.78,40.78,0,0,1,8.98,21.5c.255,2.547,1.562,18.163-5.985,25.082-5.233,4.8-9.908,1-14.965,7.168-3.085,3.758-6.093,10.949-5.988,10.751H483.76C471.54,398.258,468.8,397.123,468.792,397.123Z" transform="translate(724.356 208.314)" fill="#b6f2fc"/>
      <path id="Path_119614" data-name="Path 119614" d="M324.451,454.1c-.294-.071-1.208-2.706-1.208-2.706s160.384,2.083,389.3,5.052c1.271-9.455,5.153-42.659-2.544-75.521-2.27-9.687-8.433-36.006-20.563-40.574-6.252-2.355-13.81,1.177-19.264,10.669-4.828,8.4-5.1,16.411-7.2,16.137-5.694-.742-2.239-58.994-17.031-86.4-7.092-13.14-17.965-18.415-26.534-10.946-9.922,8.648-13.941,31.937-16.788,48.438-7.372,42.747-2.816,78.484-7.086,80.859-3.22,1.789-5.629-18.669-14.521-32.449s-17.543-10.007-28.945-10.963c-26.509-2.222-25.793-25.012-48.26-27.258-27.85-2.782-35.033,31.631-53,15.859-12.656-11.108-11.1-29.95-26.591-43.307-3.682-3.172-23.713-20.877-36.159-.218-6.8,11.292-3.928,21.7-10.3,38.5-13.27,35.007-33.852,11.181-45,42.062C323.8,406.142,325.23,454.275,324.451,454.1Z" transform="translate(529.275 167.709)" fill="#bb60fc"/>
      <path id="Path_119615" data-name="Path 119615" d="M181.318,414.737c-6.928-2.861-7.989.891-23.636,0-10.38-.594-15.571-.889-19.7-4.718-8.453-7.833-8.015-23.478-7.882-28.3A57.841,57.841,0,0,1,141.922,348.7c9.353-12.415,14.263-7.845,23.639-18.871,12.993-15.276,7.007-28.113,19.7-42.453,9.52-10.757,21.234-12.959,27.578-14.15,6.322-1.189,26.8-5.037,39.4,9.432,6.967,8,11.02,21.018,11.821,23.585,2.79,8.963,1.579,10.477,3.939,14.153,5.677,8.838,15.22,4.021,31.518,9.432A55.988,55.988,0,0,1,327.095,348.7,53.7,53.7,0,0,1,338.913,377c.334,3.356,2.055,23.911-7.879,33.02-6.888,6.317-13.041,1.322-19.7,9.435-4.061,4.944-8.02,14.41-7.879,14.15H201.018C184.935,416.229,181.321,414.737,181.318,414.737Z" transform="translate(175.734 177.724)" fill="#835eea"/>
      <path id="Path_119616" data-name="Path 119616" d="M407,540.9c27.754-12.46,39.476-18.194,53.79-30.216a186.121,186.121,0,0,0,31.871-35.129c67.08-93.294,84.611-189.734,132.26-250.489,3.9-4.967,15.112-18.774,12.076-25.3-3.334-7.157-22.207-2.128-39.241,3.614-48.535,16.36-94.7,31.925-149.458,82.826-23.24,21.607-52.584,49.027-78.266,96.9-38.743,72.222-57.129,168.577-34.7,185.025C339.423,571.134,362.007,561.1,407,540.9Z" transform="translate(533.615 39.323)" fill="#aedbf4"/>
      <g id="Group_13267" data-name="Group 13267" transform="translate(871.247 235.36)">
        <path id="Path_119617" data-name="Path 119617" d="M621.413,196.285c-61.066,30.04-92.428,96.461-126.331,151.682-39.212,63.87-91.171,117.026-164.48,139.417-1.3.4-.747,2.448.563,2.049C395.458,469.8,446.539,425.654,483.383,370.3c40.064-60.194,70.529-138.455,139.1-172.186,1.225-.6.15-2.434-1.073-1.834Z" transform="translate(-329.861 -196.166)" fill="#fff"/>
      </g>
      <path id="Path_119618" data-name="Path 119618" d="M146.384,175.83c-5.015,1.715-2.771,27,0,65.053,5.827,79.993,3.693,75.171,6.036,93.962,13,104.263,70.048,183.823,93.577,213.226,28.778,35.966,56.473,70.577,75.462,61.439,28.147-13.542,32.477-120.929,0-202.385C290.411,329.256,220.946,263.1,212.792,255.339c-15.724-14.974-34.014-27.977-51.316-57.825C154.644,185.727,149.89,174.633,146.384,175.83Z" transform="translate(200.173 1.818)" fill="#d9b7f9"/>
      <path id="Path_119619" data-name="Path 119619" d="M508.361,113.363c-3.195-2.046-9.956,8.524-21.132,21.686-21.805,25.679-34.022,30.14-57.35,50.595,0,0-25.43,22.68-57.353,65.053-72.326,96-63.474,316.309-24.148,328.874,38.61,12.333,109.985-185.532,114.7-198.771,14.608-40.973,28.393-79.631,30.188-130.1.668-18.856-.541-33.544,3.017-61.439C501.926,145.036,513.308,116.538,508.361,113.363Z" transform="translate(520.383 -112.801)" fill="#b6f2fc"/>
      <path id="Path_119620" data-name="Path 119620" d="M310.416,699.031c-34.206-30.389,37.13-210.73,45.277-231.3,25.428-64.19,43.97-111,84.518-159.018,56.733-67.179,91.766-60.016,163-148.173,21.021-26.016,38.211-51.687,45.277-46.984,8.334,5.552-5.714,47.833-21.129,108.42-35.013,137.6-53.835,278.209-87.538,310.8-2.686,2.6-21.559,20.073-43.757,45.5-3.979,4.562-4.4,5.236-7.559,8.708-16.25,17.823-32.262,31.323-42.258,39.753C405.722,660.922,335.037,720.9,310.416,699.031Z" transform="translate(488.92 -113)" fill="#866ff4"/>
      <path id="Path_119621" data-name="Path 119621" d="M162.748,119.512c-4.539,2.943,1.29,24.14,5.261,43.058,6.86,32.667,5.612,46.31,9.016,115.2,4.845,98.11,7.267,147.166,12.763,187.34,11.617,84.914,47,218.946,83.932,218.247,32.191-.611,61.915-100.83,66.315-178.751.637-11.263,2.488-52.921-8.688-106.108-13.44-63.947-55.559-125.479-139.8-248.545C189.067,146.329,168.1,116.037,162.748,119.512Z" transform="translate(232.544 -101.589)" fill="#b6f2fc"/>
      <path id="Path_119622" data-name="Path 119622" d="M503.893,226.5c-2.06-2.782-9.571-4.092-45.277,21.683-59.048,42.628-89.354,64.507-111.686,108.42-26.158,51.444-40.981,132.37-18.109,151.79,23.647,20.079,90.294-23.3,117.722-83.123,4.2-9.166,10.85-33.818,24.148-83.123,16.6-61.535,14.427-64.114,24.148-86.734C501.035,240.993,506.87,230.514,503.893,226.5Z" transform="translate(518.812 92.093)" fill="#d9b7f9"/>
      <g id="Group_13268" data-name="Group 13268" transform="translate(392.861 19.733)">
        <path id="Path_119623" data-name="Path 119623" d="M161.024,121.5c54.087,72.983,33.983,172.624,50.937,256.573,8.368,41.445,27.779,74.7,53.807,107.495,29.958,37.744,60.426,77.525,58.23,128.374-.057,1.367,2.066,1.364,2.123,0,1.828-42.323-19.091-79.033-44.264-111.485-14.348-18.5-29.789-36.258-42-56.306-12.888-21.163-20.962-44.422-25.852-68.642-16.966-84.017,3.054-183.939-51.152-257.083-.8-1.084-2.646-.028-1.831,1.073Z" transform="translate(-160.82 -119.972)" fill="#fff"/>
      </g>
      <g id="Group_13269" data-name="Group 13269" transform="translate(942.358 1.861)">
        <path id="Path_119624" data-name="Path 119624" d="M437.719,114.2,355.1,287.407c-.586,1.225,1.245,2.3,1.831,1.07q41.308-86.6,82.619-173.2c.583-1.228-1.245-2.306-1.834-1.073Z" transform="translate(-354.989 -113.657)" fill="#fff"/>
      </g>
      <g id="Group_13270" data-name="Group 13270" transform="translate(1109.096 270.355)">
        <path id="Path_119625" data-name="Path 119625" d="M415.238,218.075,458.9,210.6c1.344-.232.773-2.278-.563-2.049l-43.661,7.48c-1.344.229-.775,2.275.563,2.046Z" transform="translate(-413.907 -208.532)" fill="#fff"/>
      </g>
      <g id="Group_13271" data-name="Group 13271" transform="translate(1082.039 309.111)">
        <path id="Path_119626" data-name="Path 119626" d="M405.371,231.7a198.176,198.176,0,0,0,48.484-7.386,1.062,1.062,0,0,0-.563-2.046,196.039,196.039,0,0,1-47.92,7.31,1.062,1.062,0,0,0,0,2.122Z" transform="translate(-404.346 -222.226)" fill="#fff"/>
      </g>
      <g id="Group_13272" data-name="Group 13272" transform="translate(1065.763 333.52)">
        <path id="Path_119627" data-name="Path 119627" d="M399.617,245.564a94.964,94.964,0,0,0,51.7-12.732,1.062,1.062,0,0,0-1.07-1.834,92.665,92.665,0,0,1-50.626,12.443c-1.364-.059-1.361,2.063,0,2.123Z" transform="translate(-398.595 -230.851)" fill="#fff"/>
      </g>
      <g id="Group_13273" data-name="Group 13273" transform="translate(1112.442 247.457)">
        <path id="Path_119628" data-name="Path 119628" d="M415.089,201.467v24.72a1.062,1.062,0,0,0,2.123,0v-24.72a1.062,1.062,0,0,0-2.123,0Z" transform="translate(-415.089 -200.44)" fill="#fff"/>
      </g>
      <g id="Group_13274" data-name="Group 13274" transform="translate(1081.6 253.897)">
        <path id="Path_119629" data-name="Path 119629" d="M409.52,203.732q-2.662,26.026-5.323,52.055c-.139,1.358,1.984,1.35,2.123,0q2.662-26.026,5.323-52.055c.139-1.358-1.984-1.35-2.123,0Z" transform="translate(-404.191 -202.716)" fill="#fff"/>
      </g>
      <g id="Group_13275" data-name="Group 13275" transform="translate(1048.468 373.01)">
        <path id="Path_119630" data-name="Path 119630" d="M393.244,254.641c17.812,4.089,35.166,1.2,50.977-7.853a1.062,1.062,0,0,0-1.07-1.834c-15.333,8.779-32.092,11.6-49.344,7.641-1.33-.3-1.9,1.74-.563,2.046Z" transform="translate(-392.483 -244.806)" fill="#fff"/>
      </g>
      <g id="Group_13276" data-name="Group 13276" transform="translate(1028.965 400.142)">
        <path id="Path_119631" data-name="Path 119631" d="M386.331,270.955c21.777,6.868,43.418.642,59.891-14.764,1-.937-.5-2.437-1.5-1.5-15.97,14.94-36.7,20.883-57.825,14.221-1.307-.41-1.865,1.636-.566,2.046Z" transform="translate(-385.592 -254.393)" fill="#fff"/>
      </g>
      <g id="Group_13277" data-name="Group 13277" transform="translate(427.74 54.933)">
        <path id="Path_119632" data-name="Path 119632" d="M174.065,133.436q-.458,18.865-.92,37.735a1.062,1.062,0,0,0,2.122,0q.458-18.869.92-37.735a1.062,1.062,0,0,0-2.122,0Z" transform="translate(-173.145 -132.411)" fill="#fff"/>
      </g>
      <g id="Group_13278" data-name="Group 13278" transform="translate(400.686 80.707)">
        <path id="Path_119633" data-name="Path 119633" d="M164.918,143.8c9.645-1.364,18.027,4.429,22.623,12.577a1.062,1.062,0,0,0,1.831-1.073c-5.128-9.09-14.393-15.053-25.017-13.55-1.347.19-.775,2.236.563,2.046Z" transform="translate(-163.585 -141.518)" fill="#fff"/>
      </g>
      <g id="Group_13279" data-name="Group 13279" transform="translate(434.177 92.674)">
        <path id="Path_119634" data-name="Path 119634" d="M193.36,146.766c-1.511,18.972-7.205,36.728-17.761,52.627-.758,1.14,1.081,2.2,1.834,1.07,10.751-16.193,16.51-34.37,18.05-53.7.107-1.364-2.015-1.356-2.122,0Z" transform="translate(-175.419 -145.747)" fill="#fff"/>
      </g>
      <g id="Group_13280" data-name="Group 13280" transform="translate(407.304 117.032)">
        <path id="Path_119635" data-name="Path 119635" d="M166.649,156.466c12.2,4.319,19.569,15.876,21.9,28.17.252,1.341,2.3.773,2.046-.563-2.476-13.075-10.485-25.088-23.379-29.653-1.29-.456-1.845,1.593-.566,2.046Z" transform="translate(-165.924 -154.354)" fill="#fff"/>
      </g>
      <g id="Group_13281" data-name="Group 13281" transform="translate(408.857 157.04)">
        <path id="Path_119636" data-name="Path 119636" d="M166.678,170.014q13.1,17.5,26.2,35c.809,1.081,2.652.025,1.831-1.07l-26.2-35c-.809-1.081-2.654-.025-1.834,1.07Z" transform="translate(-166.472 -168.491)" fill="#fff"/>
      </g>
      <g id="Group_13282" data-name="Group 13282" transform="translate(434.786 119.317)">
        <path id="Path_119637" data-name="Path 119637" d="M214.573,155.715a288.42,288.42,0,0,1-38.689,64.572c-.843,1.058.651,2.57,1.5,1.5a290.439,290.439,0,0,0,39.017-65c.543-1.239-1.285-2.321-1.831-1.073Z" transform="translate(-175.635 -155.161)" fill="#fff"/>
      </g>
      <g id="Group_13283" data-name="Group 13283" transform="translate(410.346 216.346)">
        <path id="Path_119638" data-name="Path 119638" d="M167.294,191.278q11.793,12.574,23.582,25.15c.937,1,2.437-.5,1.5-1.5q-11.793-12.574-23.585-25.153c-.937-1-2.434.507-1.5,1.5Z" transform="translate(-166.999 -189.447)" fill="#fff"/>
      </g>
      <g id="Group_13284" data-name="Group 13284" transform="translate(437.303 143.366)">
        <path id="Path_119639" data-name="Path 119639" d="M230.619,164.683c.509,25.283-8.711,51.571-29.749,66.913-12.163,8.872-24.649,14.634-24.341,31.775a1.062,1.062,0,0,0,2.122,0c-.328-18.3,14.778-22.943,26.455-32.347a67.886,67.886,0,0,0,13.975-15.661c9.894-15.058,14.02-32.814,13.66-50.68a1.062,1.062,0,0,0-2.122,0Z" transform="translate(-176.524 -163.659)" fill="#fff"/>
      </g>
      <g id="Group_13285" data-name="Group 13285" transform="translate(446.243 192.712)">
        <path id="Path_119640" data-name="Path 119640" d="M181.774,270.867c9.834-34.976,46.262-53.173,55.6-88.454a1.062,1.062,0,0,0-2.046-.563c-9.319,35.205-45.753,53.422-55.6,88.452a1.062,1.062,0,0,0,2.046.566Z" transform="translate(-179.683 -181.096)" fill="#fff"/>
      </g>
      <g id="Group_13286" data-name="Group 13286" transform="translate(416.022 269.452)">
        <path id="Path_119641" data-name="Path 119641" d="M169.122,209.824c5.408,11.079,16.343,19.19,29.07,17.588,1.339-.167,1.356-2.292,0-2.122-12.039,1.514-22.122-6.062-27.236-16.536-.6-1.228-2.431-.153-1.834,1.07Z" transform="translate(-169.004 -208.212)" fill="#fff"/>
      </g>
      <g id="Group_13287" data-name="Group 13287" transform="translate(470.929 252.171)">
        <path id="Path_119642" data-name="Path 119642" d="M215.574,202.589q-13.491,20.249-26.987,40.5c-.761,1.138,1.078,2.2,1.831,1.07q13.495-20.249,26.99-40.5c.758-1.138-1.078-2.2-1.834-1.07Z" transform="translate(-188.406 -202.106)" fill="#fff"/>
      </g>
      <g id="Group_13288" data-name="Group 13288" transform="translate(414.829 311.295)">
        <path id="Path_119643" data-name="Path 119643" d="M169.285,225.129l28.243,11.742c1.259.524,1.808-1.528.563-2.046l-28.243-11.742c-1.259-.524-1.808,1.528-.563,2.046Z" transform="translate(-168.583 -222.998)" fill="#fff"/>
      </g>
      <g id="Group_13289" data-name="Group 13289" transform="translate(998.709 30.262)">
        <path id="Path_119644" data-name="Path 119644" d="M377.9,124.709q-1.494,14.739-2.991,29.474c-.139,1.358,1.987,1.35,2.123,0q1.5-14.734,2.991-29.474c.139-1.358-1.984-1.35-2.123,0Z" transform="translate(-374.901 -123.693)" fill="#fff"/>
      </g>
      <g id="Group_13290" data-name="Group 13290" transform="translate(984.472 40.602)">
        <path id="Path_119645" data-name="Path 119645" d="M370.946,128.372q-.539,21.688-1.075,43.381a1.062,1.062,0,0,0,2.123,0q.539-21.692,1.075-43.381a1.062,1.062,0,0,0-2.122,0Z" transform="translate(-369.87 -127.347)" fill="#fff"/>
      </g>
      <g id="Group_13291" data-name="Group 13291" transform="translate(960.993 61.276)">
        <path id="Path_119646" data-name="Path 119646" d="M361.575,135.674q1.719,32.13,3.436,64.255c.074,1.358,2.2,1.367,2.123,0q-1.719-32.126-3.436-64.255c-.074-1.358-2.2-1.367-2.123,0Z" transform="translate(-361.573 -134.652)" fill="#fff"/>
      </g>
      <g id="Group_13292" data-name="Group 13292" transform="translate(999.946 37.437)">
        <path id="Path_119647" data-name="Path 119647" d="M377.209,143.7l20.223-15.723c1.078-.838-.433-2.332-1.5-1.5L375.709,142.2c-1.078.838.433,2.329,1.5,1.5Z" transform="translate(-375.338 -126.228)" fill="#fff"/>
      </g>
      <g id="Group_13293" data-name="Group 13293" transform="translate(986.995 72.211)">
        <path id="Path_119648" data-name="Path 119648" d="M372.039,151.24l27.476-10.6c1.262-.487.713-2.541-.563-2.046q-13.741,5.3-27.476,10.6c-1.262.487-.713,2.539.563,2.046Z" transform="translate(-370.762 -138.516)" fill="#fff"/>
      </g>
      <g id="Group_13294" data-name="Group 13294" transform="translate(966.197 105.421)">
        <path id="Path_119649" data-name="Path 119649" d="M365.033,171.595q21.234-9.7,42.47-19.405c1.239-.566.161-2.4-1.073-1.831l-42.467,19.4c-1.242.569-.164,2.4,1.07,1.834Z" transform="translate(-363.412 -150.251)" fill="#fff"/>
      </g>
      <path id="Path_119650" data-name="Path 119650" d="M196.486,229.341c1.056-1.774-.971-6.653-3.577-9.367-3.107-3.237-7.941-4.324-8.937-2.34-.965,1.919,1.644,6.758,4.469,9.364C191.165,229.514,195.4,231.163,196.486,229.341Z" transform="translate(274.033 76.659)" fill="#d189f7"/>
      <path id="Path_119651" data-name="Path 119651" d="M188.335,227.107c-.679-2.063,2.222-6.116,5.267-7.879,3.634-2.106,8.521-1.556,9.1.691.56,2.176-2.9,6-6.133,7.584C193.451,229.037,189.034,229.23,188.335,227.107Z" transform="translate(282.21 78.984)" fill="#d189f7"/>
      <path id="Path_119652" data-name="Path 119652" d="M200.656,241.643c-1.466-7.143-7.279-11.917-7.282-11.923h0c-.009,0-12.54-8-14.563-4.769-2.114,3.385,7.276,19.063,7.282,19.074h0s12.129,7.715,14.563,3.577C201.562,246.063,201.086,243.734,200.656,241.643Z" transform="translate(264.398 90.464)" fill="#d189f7"/>
      <path id="Path_119653" data-name="Path 119653" d="M187.52,239c2.292-6.758,8.6-10.3,8.6-10.3h0c.008,0,13.338-5.36,14.951-1.755,1.692,3.77-9.441,17.354-9.447,17.365h0s-12.9,5.159-14.812.58C186.1,243.182,186.849,240.98,187.52,239Z" transform="translate(279.082 93.235)" fill="#d189f7"/>
      <path id="Path_119654" data-name="Path 119654" d="M203.457,253.443c-1.466-4.418-5.567-7.378-13.907-13.01-8-5.405-12.492-8.436-13.907-6.506,0,0-1.1,1.491,5.96,20.817h0c.008.014,6.767,11.379,22.841,15.613h.006S205.7,260.187,203.457,253.443Z" transform="translate(259.056 107.23)" fill="#d189f7"/>
      <path id="Path_119655" data-name="Path 119655" d="M188.729,251.17c1.924-4.1,6.3-6.283,15.163-10.329,8.5-3.883,13.27-6.062,14.464-3.888,0,0,.923,1.675-8.128,19.519h0c-.008.011-7.918,10.027-24.287,11.263l-.006,0S185.791,257.435,188.729,251.17Z" transform="translate(278.001 112.257)" fill="#d189f7"/>
      <path id="Path_119656" data-name="Path 119656" d="M207.56,266.077c-2.253-4.817-7.378-7.381-17.758-12.144-9.962-4.573-15.548-7.137-16.949-4.593,0,0-1.084,1.964,9.5,22.9h0c.011.014,9.265,11.77,28.453,13.261h.006S211,273.427,207.56,266.077Z" transform="translate(254.004 134.666)" fill="#d189f7"/>
      <path id="Path_119657" data-name="Path 119657" d="M187.97,270.613c1.726-5.176,6.537-8.637,16.321-15.22,9.387-6.317,14.651-9.86,16.309-7.593,0,0,1.276,1.752-7.016,24.389h0c-.008.014-7.947,13.321-26.794,18.245l-.006,0S185.338,278.512,187.97,270.613Z" transform="translate(278.83 132.427)" fill="#d189f7"/>
      <path id="Path_119658" data-name="Path 119658" d="M210.521,282.517c-2.473-5.295-8.114-8.116-19.53-13.355-10.955-5.029-17.1-7.848-18.641-5.049,0,0-1.191,2.159,10.451,25.181h0c.011.014,10.191,12.944,31.291,14.583h.006S214.3,290.6,210.521,282.517Z" transform="translate(253.078 161.516)" fill="#d189f7"/>
      <path id="Path_119659" data-name="Path 119659" d="M188.978,287.507c1.9-5.688,7.185-9.495,17.945-16.737,10.327-6.948,16.114-10.845,17.937-8.351,0,0,1.407,1.927-7.715,26.823h0c-.008.017-8.739,14.651-29.469,20.065l-.006,0S186.08,296.2,188.978,287.507Z" transform="translate(280.383 159.053)" fill="#d189f7"/>
      <path id="Path_119660" data-name="Path 119660" d="M191.228,319.787s5.734-12.435,12.927-21.961a66.854,66.854,0,0,1,18.975-17.068c7.553-4.828,11.331-7.242,13.369-5.182,3.951,4,.521,23.922-8.482,37.763-11.889,18.276-33.318,25.674-33.318,25.674h0l-3.472-19.227Z" transform="translate(287.687 183.164)" fill="#d189f7"/>
      <path id="Path_119661" data-name="Path 119661" d="M226.575,301.5s-9.169-8.179-18.735-12.916c-9.4-4.65-17.178-4.989-22.68-5.165-8.4-.269-12.6-.4-13.8,2.584-2.321,5.785,7.132,22.032,19.719,29.7,16.618,10.129,38.454,5.165,38.454,5.165h0L226.575,301.5Z" transform="translate(250.682 198.622)" fill="#d189f7"/>
      <path id="Path_119662" data-name="Path 119662" d="M387.689,284.263c-.017-1.415,2.646-2.853,4.938-2.918,2.734-.074,5.734,1.791,5.649,3.283-.082,1.443-3.051,2.57-5.428,2.471C390.553,287,387.7,285.718,387.689,284.263Z" transform="translate(647.211 195.069)" fill="#d189f7"/>
      <path id="Path_119663" data-name="Path 119663" d="M391.6,289.467c1.03-.7.724-4.177-.385-6.577-1.324-2.867-4.18-5.029-5.213-4.188-1,.809-.317,4.449.954,6.857C388.185,287.885,390.545,290.183,391.6,289.467Z" transform="translate(643.251 189.899)" fill="#d189f7"/>
      <path id="Path_119664" data-name="Path 119664" d="M387.04,289.508c3.076-2.853,7.783-2.352,7.785-2.352h0c.006,0,9.424,2.236,9.506,4.865.088,2.751-10.049,5.937-10.055,5.94h0s-9.11-2.176-9.129-5.465C385.139,291.271,386.14,290.342,387.04,289.508Z" transform="translate(642.559 205.644)" fill="#d189f7"/>
      <path id="Path_119665" data-name="Path 119665" d="M392.056,299.266c.889-4.534-1.449-9.452-1.449-9.455h0c0-.006-5.615-9.336-7.647-8.332-2.125,1.047-.334,13.409-.334,13.42h0s5.439,9.014,7.944,7.672C391.5,302.07,391.8,300.593,392.056,299.266Z" transform="translate(636.655 195.179)" fill="#d189f7"/>
      <path id="Path_119666" data-name="Path 119666" d="M386.929,294.048c2.21-1.486,5.4-.926,11.767.4,6.11,1.276,9.537,1.992,9.7,3.668,0,0,.127,1.293-9.885,7.471h0c-.008,0-7.33,2.338-17.5-3.552l0,0S383.559,296.314,386.929,294.048Z" transform="translate(634.986 216.7)" fill="#d189f7"/>
      <path id="Path_119667" data-name="Path 119667" d="M390.692,307.41c.249-3.017-1.46-6.291-5.037-12.738-3.43-6.184-5.354-9.653-6.7-9.158,0,0-1.039.379-1.743,13.842h0c0,.011,1.16,8.974,9.749,17.753l0,0S390.313,312.017,390.692,307.41Z" transform="translate(628.034 202.616)" fill="#d189f7"/>
      <path id="Path_119668" data-name="Path 119668" d="M383.932,301.074c2.765-1.293,6.393-.025,13.6,2.759,6.919,2.671,10.8,4.169,10.76,6.144,0,0-.028,1.525-12.489,6.75h0c-.011,0-8.827,1.288-19.83-7.528l0,0S379.71,303.049,383.932,301.074Z" transform="translate(625.772 230.246)" fill="#d189f7"/>
      <path id="Path_119669" data-name="Path 119669" d="M386.926,318.154c.7-3.455-.843-7.587-4.118-15.766-3.144-7.848-4.907-12.248-6.537-11.937,0,0-1.259.241-3.9,15.729h0c0,.014.127,10.644,8.906,22.507l0,0S385.861,323.429,386.926,318.154Z" transform="translate(619.173 211.708)" fill="#d189f7"/>
      <path id="Path_119670" data-name="Path 119670" d="M379.19,308.422c3.039-1.423,7.03-.028,14.959,3.034,7.61,2.938,11.878,4.585,11.835,6.758,0,0-.031,1.675-13.737,7.423h0c-.011,0-9.707,1.415-21.805-8.278l-.006,0S374.546,310.6,379.19,308.422Z" transform="translate(615.64 243.599)" fill="#d189f7"/>
      <path id="Path_119671" data-name="Path 119671" d="M382.481,327.207c.767-3.8-.928-8.346-4.531-17.339-3.458-8.632-5.4-13.471-7.188-13.128,0,0-1.384.263-4.29,17.3h0c0,.014.139,11.708,9.795,24.754l0,0S381.31,333.005,382.481,327.207Z" transform="translate(608.384 223.212)" fill="#d189f7"/>
      <path id="Path_119672" data-name="Path 119672" d="M375.7,344.737a102.405,102.405,0,0,0-.113-17.455,60.6,60.6,0,0,0-4.989-18.019c-2.609-6.189-3.917-9.282-5.691-9.265-3.436.037-7.887,11.742-7.344,23.172.716,15.092,10.123,29.483,10.123,29.483h0l8.015-7.915Z" transform="translate(591.998 229.205)" fill="#d189f7"/>
      <path id="Path_119673" data-name="Path 119673" d="M369.614,315.6A60.715,60.715,0,0,1,384,318.454a42.6,42.6,0,0,1,14.088,8.711c4.7,4.053,7.047,6.082,6.755,8.176-.566,4.058-10.915,7.5-20.263,5.071-12.339-3.2-22.742-16.572-22.745-16.572h0l7.78-8.244Z" transform="translate(599.896 257.751)" fill="#d189f7"/>
      <path id="Path_119674" data-name="Path 119674" d="M158.048,252.783c.345-1.672-2.2-4.347-4.675-5.258-2.946-1.084-6.628.034-6.885,1.831-.246,1.74,2.711,4.16,5.312,4.907C154.307,254.987,157.691,254.5,158.048,252.783Z" transform="translate(205.785 132.401)" fill="#d189f7"/>
      <path id="Path_119675" data-name="Path 119675" d="M150.8,256.389c-.954-1.2.184-5.213,1.944-7.655,2.1-2.918,5.7-4.437,6.622-3.068.9,1.327-.69,5.394-2.626,7.785C154.873,255.761,151.78,257.626,150.8,256.389Z" transform="translate(213.072 128.848)" fill="#d189f7"/>
      <path id="Path_119676" data-name="Path 119676" d="M163.811,260.107a13.262,13.262,0,0,0-7.89-5.62h0c-.006,0-10.731-.784-11.43,2.3-.733,3.229,9.509,10.7,9.517,10.7h0s10.375.739,11.161-3.15C165.461,262.894,164.592,261.428,163.811,260.107Z" transform="translate(202.089 145.758)" fill="#d189f7"/>
      <path id="Path_119677" data-name="Path 119677" d="M151.7,267.9c.088-5.7,3.764-10.678,3.764-10.683h0c.006,0,8.255-9.019,10.222-7.092,2.06,2.021-2.754,16.021-2.756,16.032h0s-7.986,8.705-10.389,6.2C151.644,271.426,151.672,269.57,151.7,267.9Z" transform="translate(215.331 137.45)" fill="#d189f7"/>
      <path id="Path_119678" data-name="Path 119678" d="M168.611,266.78c-2.049-2.564-5.637-3.065-12.845-3.806-6.917-.713-10.8-1.112-11.362.812,0,0-.436,1.489,8.977,12.46h0c.011.006,7.4,5.439,19.785,2.162h.006S171.735,270.694,168.611,266.78Z" transform="translate(201.992 160.375)" fill="#d189f7"/>
      <path id="Path_119679" data-name="Path 119679" d="M154.308,278.2c.433-3.671,3.045-6.928,8.419-13.267,5.153-6.082,8.046-9.492,9.39-8.416,0,0,1.036.829-1.327,17.042h0c-.006.014-3.342,10.219-14.688,17.5l0,0S153.648,283.793,154.308,278.2Z" transform="translate(219.917 149.268)" fill="#d189f7"/>
      <path id="Path_119680" data-name="Path 119680" d="M174.352,275.5c-2.694-2.544-6.922-2.36-15.381-1.687-8.119.645-12.67,1.007-13.089,3.362,0,0-.323,1.82,11.968,12.554h0c.011.006,9.265,4.74,23.234-1.7l0,0S178.467,279.376,174.352,275.5Z" transform="translate(204.704 180.494)" fill="#d189f7"/>
      <path id="Path_119681" data-name="Path 119681" d="M157.443,292.789c.048-4.35,2.677-8.688,8.125-17.189,5.233-8.159,8.165-12.732,9.857-11.77,0,0,1.307.744.574,20.068h0c0,.014-2.609,12.571-14.88,23.435l0,0S157.372,299.429,157.443,292.789Z" transform="translate(225.858 162.788)" fill="#d189f7"/>
      <path id="Path_119682" data-name="Path 119682" d="M180.187,286.22c-2.966-2.793-7.616-2.6-16.918-1.854-8.929.71-13.935,1.109-14.393,3.7,0,0-.357,2,13.16,13.8h0c.014.006,10.191,5.213,25.555-1.871l0,0S184.712,290.485,180.187,286.22Z" transform="translate(210.181 199.731)" fill="#d189f7"/>
      <path id="Path_119683" data-name="Path 119683" d="M161.589,305.238c.054-4.786,2.943-9.557,8.937-18.9,5.753-8.974,8.98-14,10.842-12.944,0,0,1.438.818.628,22.068h0c0,.017-2.87,13.827-16.363,25.776l0,0S161.512,312.539,161.589,305.238Z" transform="translate(233.445 180.258)" fill="#d189f7"/>
      <path id="Path_119684" data-name="Path 119684" d="M168.527,329.2a131.946,131.946,0,0,1,4.18-20.653A69.822,69.822,0,0,1,182.3,289c4.268-6.382,6.4-9.574,8.32-8.906,3.716,1.293,5.819,16.79,2.575,30.142-4.279,17.631-17.82,31.263-17.82,31.263h0l-6.846-12.3Z" transform="translate(246.144 192.624)" fill="#d189f7"/>
      <path id="Path_119685" data-name="Path 119685" d="M195.536,298.133a61.893,61.893,0,0,0-16.25-1.854c-7.737.371-13.343,3.172-17.288,5.2-6.031,3.093-9.048,4.641-9.22,7.231-.328,5.018,10.089,12.865,20.778,13.394,14.116.7,28.5-11.36,28.5-11.36h0l-6.517-12.608Z" transform="translate(217.31 222.325)" fill="#d189f7"/>
      <path id="Path_119686" data-name="Path 119686" d="M376.315,182.9c-1.545-2.776,2.185-9.71,6.656-13.352,5.334-4.347,13.264-5.258,14.7-2.176,1.384,2.98-3.291,9.769-8.1,13.222C384.918,183.929,377.905,185.76,376.315,182.9Z" transform="translate(625.746 -16.817)" fill="#d189f7"/>
      <path id="Path_119687" data-name="Path 119687" d="M390.787,181.534c1.288-2.957-3.037-9.376-7.805-12.427-5.694-3.642-13.658-3.538-14.807-.291-1.112,3.141,4.14,9.3,9.234,12.115C382.322,183.651,389.46,184.579,390.787,181.534Z" transform="translate(611.225 -15.316)" fill="#d189f7"/>
      <path id="Path_119688" data-name="Path 119688" d="M379.137,200.494c3.028-10.363,12.885-16.6,12.891-16.6h0c.014,0,21.052-10.035,24.029-4.958,3.113,5.315-13.541,27.174-13.553,27.194h0s-20.356,9.667-23.916,3.192C377.261,206.907,378.248,203.531,379.137,200.494Z" transform="translate(629.373 5.038)" fill="#d189f7"/>
      <path id="Path_119689" data-name="Path 119689" d="M401.673,200.3c-3.09-10.335-12.984-16.488-12.987-16.493h0c-.014,0-21.109-9.863-24.058-4.76-3.085,5.34,13.7,27.06,13.708,27.08h0s20.413,9.5,23.936,2.994C403.586,206.7,402.578,203.335,401.673,200.3Z" transform="translate(604.316 5.192)" fill="#d189f7"/>
      <path id="Path_119690" data-name="Path 119690" d="M381.016,217.481c2.782-6.328,9.7-10.12,23.724-17.257,13.462-6.846,21.01-10.686,23.127-7.624,0,0,1.633,2.366-11.572,29.964h0c-.014.02-12.011,15.871-38.437,19.816l-.009,0S376.768,227.139,381.016,217.481Z" transform="translate(628.98 30.717)" fill="#d189f7"/>
      <path id="Path_119691" data-name="Path 119691" d="M406.614,218.983c-2.739-6.353-9.628-10.213-23.608-17.484-13.414-6.979-20.936-10.893-23.073-7.848,0,0-1.65,2.349,11.368,30.074h0c.014.02,11.9,15.987,38.3,20.186l.009,0S410.8,228.684,406.614,218.983Z" transform="translate(596.295 32.681)" fill="#d189f7"/>
      <path id="Path_119692" data-name="Path 119692" d="M382.69,235.676c4.089-6.806,12.63-9.863,29.882-15.415,16.555-5.332,25.838-8.32,27.878-4.353,0,0,1.576,3.065-17.5,32.531h0c-.02.02-16.094,16.089-47.309,15.525h-.008S376.447,246.062,382.69,235.676Z" transform="translate(625.152 71.986)" fill="#d189f7"/>
      <path id="Path_119693" data-name="Path 119693" d="M407.988,248.069c-2.318-7.91-9.792-13.728-25.031-24.89-14.625-10.712-22.827-16.714-25.719-13.6,0,0-2.233,2.405,9.115,37.121h0c.014.025,11.645,20.874,41.723,30.887l.008,0S411.525,260.141,407.988,248.069Z" transform="translate(591.158 62.239)" fill="#d189f7"/>
      <path id="Path_119694" data-name="Path 119694" d="M380.569,259.613c4.5-7.485,13.892-10.845,32.865-16.955,18.208-5.861,28.419-9.147,30.663-4.783,0,0,1.729,3.368-19.247,35.774h0c-.02.023-17.7,17.7-52.03,17.076h-.008S373.706,271.038,380.569,259.613Z" transform="translate(619.986 111.853)" fill="#d189f7"/>
      <path id="Path_119695" data-name="Path 119695" d="M408.392,273.246c-2.55-8.7-10.768-15.1-27.528-27.375-16.086-11.778-25.1-18.384-28.286-14.954,0,0-2.456,2.646,10.024,40.826h0c.017.025,12.809,22.957,45.889,33.968l.008,0S412.283,286.524,408.392,273.246Z" transform="translate(582.6 101.133)" fill="#d189f7"/>
      <path id="Path_119696" data-name="Path 119696" d="M411.792,321.413s-8.142-19.241-18.913-34.382c-10.581-14.872-21.449-22.62-29.166-28.011-11.79-8.241-17.687-12.364-21.18-9.605-6.767,5.346-3.048,35.344,10.262,57.141,17.574,28.775,51.6,42.824,51.6,42.824h0l7.392-27.966Z" transform="translate(558.527 135.078)" fill="#d189f7"/>
      <path id="Path_119697" data-name="Path 119697" d="M370.165,286.566s15.6-10.785,31.535-16.417c15.65-5.53,28.286-4.9,37.212-4.372,13.635.815,20.455,1.223,22.122,5.818,3.223,8.9-13.584,31.591-34.679,41.134-27.853,12.6-62.764,2.094-62.767,2.094h0l6.577-28.257Z" transform="translate(603.106 165.969)" fill="#d189f7"/>
      <g id="Group_13295" data-name="Group 13295" transform="translate(482.397 457.55)">
        <path id="Path_119698" data-name="Path 119698" d="M233.006,275.272c-1.721,7.287-7.952,14.673-11.869,20.486-2.638,3.917-5.02,7.961-7.565,12.008-6.305,10.03-13.893,17.928-20.917,26.789-.6.761.314,1.961.917,1.2,3.588-4.528,7.607-7.765,10.983-12.874,3.676-5.561,7.879-10.38,11.416-16.134,2.841-4.616,5.79-9.011,8.643-13.621,3.249-5.25,8.074-10.768,9.642-17.407.246-1.047-1-1.494-1.251-.45Z" transform="translate(-192.458 -274.678)" fill="#fff"/>
      </g>
      <g id="Group_13296" data-name="Group 13296" transform="translate(421.775 484.591)">
        <path id="Path_119699" data-name="Path 119699" d="M228.574,315.753c-9.036-2.023-16.966-7.491-25.79-9.984-7.1-2.006-14.226-7.545-20.331-12.475-3.288-2.657-7.666-5.105-10.318-8.8-.574-.8-1.489.4-.917,1.2,3.192,4.443,8.527,7.882,12.424,11.13,3.914,3.263,8.926,5.915,13.239,8.184,5.422,2.855,10.935,4.095,16.233,7.2,4.681,2.742,10.08,4.055,15.115,5.185.818.181,1.169-1.455.345-1.639Z" transform="translate(-171.037 -284.233)" fill="#fff"/>
      </g>
      <g id="Group_13297" data-name="Group 13297" transform="translate(469.014 419.047)">
        <path id="Path_119700" data-name="Path 119700" d="M223.517,261.229c-2.988,2.8-6.382,4.624-9.076,7.9-3.88,4.723-7.494,9.922-11.314,14.741-5.745,7.242-10.078,15.067-15.231,22.875-.543.824.371,2.029.917,1.2,4.819-7.3,8.827-14.931,14.192-21.686,3.283-4.135,6.665-8.2,9.885-12.415,3.569-4.664,7.191-7.321,11.28-11.153.674-.628.025-2.1-.654-1.466Z" transform="translate(-187.729 -261.073)" fill="#fff"/>
      </g>
      <g id="Group_13298" data-name="Group 13298" transform="translate(423.187 420.532)">
        <path id="Path_119701" data-name="Path 119701" d="M215.373,303.958c-6.079-8.057-11.94-11.761-19.5-16.748-8.142-5.368-19.244-13.941-23.152-25.173-.345-.993-1.463-.13-1.118.858,3.379,9.721,11.861,16.394,18.5,21.686,8.541,6.806,17.124,11,24.352,20.577.589.778,1.5-.422.917-1.2Z" transform="translate(-171.536 -261.598)" fill="#fff"/>
      </g>
      <g id="Group_13299" data-name="Group 13299" transform="translate(465.618 380.308)">
        <path id="Path_119702" data-name="Path 119702" d="M218.881,247.4c-2.81.62-5.637,5.476-7.822,7.723-2.94,3.025-5.357,6.557-8.057,9.865-5.867,7.191-13.561,12.517-16.431,22.9-.283,1.027.968,1.472,1.251.45,2.867-10.378,10.935-15.392,16.6-22.739a106.955,106.955,0,0,1,7.381-9.039c1.939-2.018,5.125-7.018,7.423-7.525.821-.181.473-1.817-.345-1.636Z" transform="translate(-186.529 -247.384)" fill="#fff"/>
      </g>
      <g id="Group_13300" data-name="Group 13300" transform="translate(423.694 379.964)">
        <path id="Path_119703" data-name="Path 119703" d="M171.933,248.673a62.82,62.82,0,0,0,11.252,9.647c3.7,2.53,6,5.456,8.98,9.169,5.442,6.786,13.284,12.959,19.858,17.552.736.512,1.392-.954.657-1.466a108.351,108.351,0,0,1-18.214-16.168c-2.652-2.991-4.191-6.563-7.228-8.748-5.148-3.707-9.715-6.118-14.388-11.19-.637-.691-1.559.5-.917,1.2Z" transform="translate(-171.715 -247.263)" fill="#fff"/>
      </g>
      <g id="Group_13301" data-name="Group 13301" transform="translate(464.535 349.23)">
        <path id="Path_119704" data-name="Path 119704" d="M216.779,236.6c-6.141,6.334-13.9,8.7-20.116,14.744-3.727,3.628-8.366,6.563-10.446,12.149-.362.976.756,1.84,1.121.855,2.315-6.223,11.266-12.978,15.619-15.752,5.094-3.243,10.256-6.172,14.739-10.794.656-.676-.269-1.871-.917-1.2Z" transform="translate(-186.147 -236.403)" fill="#fff"/>
      </g>
      <g id="Group_13302" data-name="Group 13302" transform="translate(430.968 330.557)">
        <path id="Path_119705" data-name="Path 119705" d="M206.875,275.4c-1.715-7.944-6.645-12.86-11.343-17.722-7.686-7.955-16.465-14.591-19.954-27.3-.28-1.022-1.534-.58-1.251.45,2.27,8.261,6.345,13.921,11.49,19.284,6.656,6.936,17.368,14.436,19.81,25.736.226,1.05,1.477.606,1.248-.45Z" transform="translate(-174.285 -229.804)" fill="#fff"/>
      </g>
      <g id="Group_13303" data-name="Group 13303" transform="translate(955.592 528.349)">
        <path id="Path_119706" data-name="Path 119706" d="M360.636,300.353c-2.12,6.984-.153,17.368.158,24.808.379,8.915,1.961,17.175,3.093,25.838.167,1.285,1.817.863,1.65-.419-.965-7.378-2.42-14.608-2.813-22.15-.408-7.805-2.68-20.223-.487-27.442.371-1.223-1.231-1.854-1.6-.634Z" transform="translate(-359.665 -299.696)" fill="#fff"/>
      </g>
      <g id="Group_13304" data-name="Group 13304" transform="translate(962.265 579.878)">
        <path id="Path_119707" data-name="Path 119707" d="M362.425,319.707c11.988,7.463,27.892,13.663,41.559,12.65,1.07-.079,1.169-2.1.085-2.015a50.256,50.256,0,0,1-20.806-3.356c-2.745-1.087-5.074-2.943-7.845-3.939-4.115-1.474-8.193-2.612-12.059-5.018-.951-.594-1.9,1.081-.934,1.678Z" transform="translate(-362.023 -317.904)" fill="#fff"/>
      </g>
      <g id="Group_13305" data-name="Group 13305" transform="translate(978.828 518.292)">
        <path id="Path_119708" data-name="Path 119708" d="M367.922,297.3c3.693,13.363,4.313,26.3,5.032,40.192.068,1.282,1.752,1.4,1.684.1-.34-6.594-.241-12.743-1.1-19.326a149.1,149.1,0,0,0-3.965-21.389.856.856,0,1,0-1.647.422Z" transform="translate(-367.876 -296.142)" fill="#fff"/>
      </g>
      <g id="Group_13306" data-name="Group 13306" transform="translate(986.191 558.993)">
        <path id="Path_119709" data-name="Path 119709" d="M371.481,312.823c11.586-1.687,26.039,7.208,37.042.107.954-.617.2-2.42-.758-1.8-5.369,3.464-13.465,2.3-19.221,1.214-6.251-1.186-11.054-2.42-17.416-1.494-1.075.159-.719,2.131.354,1.975Z" transform="translate(-370.477 -310.524)" fill="#fff"/>
      </g>
      <g id="Group_13307" data-name="Group 13307" transform="translate(995.002 502.265)">
        <path id="Path_119710" data-name="Path 119710" d="M373.817,292.138c1.047,1.333,1.061,4.887,1.426,6.6.592,2.776.829,5.516,1.24,8.337.934,6.413,3.668,13.431,1.97,19.968-.323,1.237,1.276,1.873,1.6.631,1.772-6.812-.778-14.025-1.749-20.741-.509-3.526-1.129-6.919-1.808-10.4-.379-1.93-.241-4.239-1.412-5.734-.744-.945-2.009.388-1.265,1.336Z" transform="translate(-373.591 -290.479)" fill="#fff"/>
      </g>
      <g id="Group_13308" data-name="Group 13308" transform="translate(1002.216 537.078)">
        <path id="Path_119711" data-name="Path 119711" d="M410.426,304.532c-4.256.221-7.876-1.262-11.979-1.672-2.151-.215-4.152.758-6.331.9a61.489,61.489,0,0,1-15.132-.968c-1.07-.2-1.149,1.811-.085,2.018,5.066.974,11.374,1.888,16.476,1.092,2.19-.34,3.86-1.039,6.113-.608,3.767.719,6.959,1.455,10.856,1.254,1.073-.057,1.169-2.072.082-2.018Z" transform="translate(-376.14 -302.78)" fill="#fff"/>
      </g>
      <g id="Group_13309" data-name="Group 13309" transform="translate(1006.272 487.937)">
        <path id="Path_119712" data-name="Path 119712" d="M377.6,286.594c1.073,4.921,3.237,9.073,5.043,13.615,1.341,3.379,3.832,10.652,3.206,14.441-.209,1.257,1.389,1.9,1.6.631.688-4.16-.974-8.5-2.06-12.446-1.6-5.807-4.834-10.675-6.138-16.663a.858.858,0,1,0-1.65.422Z" transform="translate(-377.573 -285.416)" fill="#fff"/>
      </g>
      <g id="Group_13310" data-name="Group 13310" transform="translate(1015.824 510.369)">
        <path id="Path_119713" data-name="Path 119713" d="M382.377,302.149c4.443-4.013,11.821-2.9,17.042-2.969,5.241-.076,9.718-.337,14.26-3.874.9-.7.153-2.51-.756-1.8-9.563,7.446-22.668-.988-31.662,7.132-.869.784.255,2.289,1.115,1.514Z" transform="translate(-380.948 -293.342)" fill="#fff"/>
      </g>
      <g id="Group_13311" data-name="Group 13311" transform="translate(420.427 471.881)">
        <path id="Path_119714" data-name="Path 119714" d="M185.724,280.554c.645,8.643-3.883,20.424-5.9,28.8-2.439,10.129-6.042,19.371-9.206,29-.328.993.79,1.859,1.118.858,3.221-9.795,6.849-19.071,9.339-29.4,2.049-8.5,6.605-20.387,5.943-29.248-.082-1.078-1.378-1.087-1.3,0Z" transform="translate(-170.561 -279.742)" fill="#fff"/>
      </g>
      <g id="Group_13312" data-name="Group 13312" transform="translate(369.922 530.612)">
        <path id="Path_119715" data-name="Path 119715" d="M200.636,300.73c-7.064,2.148-14.286,1.542-21.352,2.955-7.938,1.588-18.047.136-25.776-3.144-.8-.337-1.135,1.3-.345,1.639a53.786,53.786,0,0,0,23.749,3.654c7.966-.524,16.284-1.1,24.069-3.467.812-.246.467-1.885-.345-1.636Z" transform="translate(-152.714 -300.495)" fill="#fff"/>
      </g>
      <g id="Group_13313" data-name="Group 13313" transform="translate(398.848 451.777)">
        <path id="Path_119716" data-name="Path 119716" d="M177.907,273.034a168.844,168.844,0,0,0-9.387,23.953c-2.374,7.437-3.671,14.758-5.55,22.363-.258,1.041.993,1.489,1.251.453,4.007-16.21,7.712-31.441,14.807-45.914.45-.923-.671-1.774-1.121-.855Z" transform="translate(-162.936 -272.638)" fill="#fff"/>
      </g>
      <g id="Group_13314" data-name="Group 13314" transform="translate(356.281 484.592)">
        <path id="Path_119717" data-name="Path 119717" d="M188.693,297.439c-6.455-3.3-11.62-3.563-18.381-4.389-6.687-.818-16.134-2.335-21.3-8.583-.611-.742-1.531.458-.917,1.2,10.259,12.407,28.054,7.171,40.251,13.409.778.4,1.115-1.242.345-1.636Z" transform="translate(-147.894 -284.234)" fill="#fff"/>
      </g>
      <g id="Group_13315" data-name="Group 13315" transform="translate(386.368 426.898)">
        <path id="Path_119718" data-name="Path 119718" d="M172.408,263.983c-1.387,1.152-1.5,2.816-2.247,4.8-1.361,3.62-2.988,6.993-4.22,10.717-2.677,8.094-7.751,16.822-7.4,26.008.042,1.09,1.339,1.1,1.3,0-.325-8.493,4.268-15.842,6.815-23.26,1.087-3.167,1.973-6.285,3.246-9.33.611-1.458,1.99-6.5,3.161-7.471.7-.583.054-2.052-.654-1.466Z" transform="translate(-158.526 -263.847)" fill="#fff"/>
      </g>
      <g id="Group_13316" data-name="Group 13316" transform="translate(347.458 455.486)">
        <path id="Path_119719" data-name="Path 119719" d="M145.231,275.625c6.464,2.567,13.018,2.5,19.278,5.589,5.374,2.643,11.861,3.77,17.538,4.565.829.116.824-1.582,0-1.7-6.169-.866-13.471-2.533-19.173-5.618-5.513-2.983-11.416-2.139-17.3-4.474-.8-.317-1.143,1.319-.345,1.636Z" transform="translate(-144.777 -273.949)" fill="#fff"/>
      </g>
      <g id="Group_13317" data-name="Group 13317" transform="translate(375.5 405.801)">
        <path id="Path_119720" data-name="Path 119720" d="M170.328,256.81c-2.666,6.294-6.849,10.8-10.024,16.57-2.25,4.087-5.4,9.613-5.618,14.747-.045,1.092,1.251,1.09,1.3,0,.232-5.544,5.524-13.909,7.958-17.758,2.638-4.174,5.479-7.913,7.505-12.7.4-.956-.713-1.814-1.118-.857Z" transform="translate(-154.686 -256.392)" fill="#fff"/>
      </g>
      <g id="Group_13318" data-name="Group 13318" transform="translate(341.352 417.532)">
        <path id="Path_119721" data-name="Path 119721" d="M176.205,280.555c-7.768-12.752-23.894-7.488-32.494-19.751-.563-.807-1.48.4-.914,1.2,4.064,5.8,8.767,7.763,14.408,9.727,5.889,2.049,14.037,3.382,18.084,10.024.521.855,1.432-.354.917-1.2Z" transform="translate(-142.619 -260.538)" fill="#fff"/>
      </g>
      <g id="Group_13319" data-name="Group 13319" transform="translate(900.997 382.731)">
        <path id="Path_119722" data-name="Path 119722" d="M340.406,249.889c1.95,10.168,9.152,18.754,14.04,27.174,4.491,7.737,9.127,15.452,13.768,23.031,5.088,8.306,10.884,15.684,15.981,23.925,4.944,7.992,11.263,13.457,16.632,20.645.951,1.271,2.51-.606,1.565-1.873C391.881,328.73,380.357,315.927,371.1,300.2q-5.6-9.517-11.275-18.972c-5.595-9.28-15.115-20.693-17.291-32.044-.32-1.658-2.451-.957-2.131.7Z" transform="translate(-340.374 -248.24)" fill="#fff"/>
      </g>
      <g id="Group_13320" data-name="Group 13320" transform="translate(967.614 437.447)">
        <path id="Path_119723" data-name="Path 119723" d="M364.971,308.608c8.179-.937,17.2-2.176,25-5.436,8.176-3.416,16.391-4.72,24.811-7.5,9.846-3.252,19.139-8.535,28.009-14.125,5.977-3.764,12.684-6.189,17.75-11.742,1.05-1.152-.515-3.02-1.562-1.871-4.248,4.655-12,8.083-17.3,11.328-11.951,7.324-24.058,13.842-37.489,16.055-13.253,2.182-25.464,9.073-39.213,10.644-1.4.159-1.418,2.807,0,2.646Z" transform="translate(-363.913 -267.575)" fill="#fff"/>
      </g>
      <g id="Group_13321" data-name="Group 13321" transform="translate(934.356 328.528)">
        <path id="Path_119724" data-name="Path 119724" d="M352.531,231.285a301.986,301.986,0,0,1,30.745,36.252c8.422,11.487,14.863,23.619,22.388,35.805.835,1.353,2.754.037,1.907-1.336-7.208-11.674-12.987-23.5-21.166-34.427-4.938-6.6-10.038-13.1-14.869-19.807-5.567-7.732-10.825-11.747-17.444-18.358-1.084-1.084-2.654.778-1.562,1.871Z" transform="translate(-352.161 -229.087)" fill="#fff"/>
      </g>
      <g id="Group_13322" data-name="Group 13322" transform="translate(992.82 342.38)">
        <path id="Path_119725" data-name="Path 119725" d="M374.742,292.387c20.9-21.819,59.025-25.261,73.3-56.416.685-1.494-1.223-2.83-1.907-1.336-7.463,16.284-27.292,27.847-41.015,34.379-12.384,5.892-21.746,10.856-31.942,21.5-1.073,1.121.5,2.986,1.562,1.871Z" transform="translate(-372.82 -233.982)" fill="#fff"/>
      </g>
      <g id="Group_13323" data-name="Group 13323" transform="translate(949.315 272.034)">
        <path id="Path_119726" data-name="Path 119726" d="M358.234,211.721c3.52,1.036,8.442,9.005,11.229,12.078,4.37,4.817,7.842,10.451,11.943,15.551,8.6,10.706,20.475,20.1,23.984,35.118.382,1.639,2.516.942,2.131-.7-3.58-15.319-15.1-24.287-23.766-35.375-4.893-6.26-9.3-12.554-14.645-18.336-3.206-3.467-5.991-9.622-10.287-10.887-1.381-.4-1.97,2.145-.589,2.553Z" transform="translate(-357.447 -209.125)" fill="#fff"/>
      </g>
      <g id="Group_13324" data-name="Group 13324" transform="translate(1000.728 282.083)">
        <path id="Path_119727" data-name="Path 119727" d="M444.255,212.917c-10.2,8.68-22.75,11.3-31.755,21.14-10.038,10.972-23.9,20.186-36.309,26.741-1.3.685-.175,2.966,1.115,2.284,11.026-5.824,24.89-13.782,34.011-23.322,5.884-6.158,9.758-9.362,17.243-12.913,6.195-2.943,11.416-7.055,16.81-11.645,1.152-.979.048-3.271-1.115-2.284Z" transform="translate(-375.614 -212.676)" fill="#fff"/>
      </g>
      <g id="Group_13325" data-name="Group 13325" transform="translate(956.207 226.358)">
        <path id="Path_119728" data-name="Path 119728" d="M360.23,195.215c7.338,8.037,16.009,12.871,24.375,19.049,6.495,4.8,19.312,15.588,22.218,24.327a1.128,1.128,0,1,0,2.131-.7c-3.005-9.039-10.972-15.022-17.175-20.982-9.39-9.025-20.987-13.7-29.987-23.563-1.047-1.149-2.612.719-1.562,1.871Z" transform="translate(-359.882 -192.985)" fill="#fff"/>
      </g>
      <g id="Group_13326" data-name="Group 13326" transform="translate(1006.731 207.899)">
        <path id="Path_119729" data-name="Path 119729" d="M379.939,250.309c4.692-15.4,21.746-25.546,32.72-33.909,9.585-7.3,17.294-15.259,22.009-27.915.574-1.54-1.33-2.887-1.907-1.333-6.685,17.931-20.933,26.636-33.957,37.036-8.456,6.755-17.322,13.369-21,25.416a1.129,1.129,0,1,0,2.131.7Z" transform="translate(-377.735 -186.462)" fill="#fff"/>
      </g>
      <g id="Group_13327" data-name="Group 13327" transform="translate(461.279 298.554)">
        <path id="Path_119730" data-name="Path 119730" d="M236.765,506.412c-7.451-5.666-13.007-18.384-17.218-27.952-4.7-10.68-7.717-23.495-11.19-34.965-6.993-23.093-13.411-47.088-16.423-71.709-3.28-26.825-4.019-53.453-4.293-80.562-.13-12.882,1.933-25.643,3.158-38.412a144.514,144.514,0,0,1,2.858-18.27c.713-3.144,1.364-10.782,2.493-13.493.8-1.919-1.438-3.634-2.239-1.712-1.61,3.866-1.607,8.507-2.459,12.783-1.087,5.465-2.182,10.873-2.833,16.462-1.48,12.645-3.492,25.81-3.6,38.638-.235,29.291.979,58.527,4.661,87.444,3.5,27.525,11.309,54.152,19.179,79.97,5.544,18.188,12.8,44.224,26.591,54.71,1.446,1.1,2.754-1.834,1.31-2.932Z" transform="translate(-184.996 -218.496)" fill="#eed2f9"/>
      </g>
      <g id="Group_13328" data-name="Group 13328" transform="translate(920.69 474.071)">
        <path id="Path_119731" data-name="Path 119731" d="M348.879,408.35c11.43.164,21.734-6.863,31.311-13.547,12.4-8.654,25.006-18.152,35.613-29.78,19.852-21.771,40.69-50.564,48.727-81.895.637-2.479-2.561-3.753-3.2-1.265-7.525,29.339-26.947,56.3-45.11,77.151-9.724,11.164-21.171,20.036-32.59,28.5-10.253,7.6-22,16.98-34.583,16.8-2.162-.031-2.346,4-.167,4.033Z" transform="translate(-347.332 -280.516)" fill="#eed2f9"/>
      </g>
      <g id="Group_13329" data-name="Group 13329" transform="translate(361.791 379.152)">
        <path id="Path_119732" data-name="Path 119732" d="M246.213,435.3c-14.252-3.209-25.227-21.344-34.837-33.985-10.355-13.621-20.339-28.509-28.059-44.892-7.7-16.335-13.788-33.258-19.657-50.8-5.671-16.954-10.559-38.389-11.224-57.013-.076-2.176-2.672-2.188-2.592,0,.594,16.623,4.415,36.063,9.132,51.472A421.932,421.932,0,0,0,182.66,361.45c8.317,17.054,19.182,31.744,29.817,46.3,8.759,11.985,19.949,27.875,33.046,30.827,1.633.368,2.335-2.9.691-3.274Z" transform="translate(-149.841 -246.976)" fill="#eed2f9"/>
      </g>
      <g id="Group_13330" data-name="Group 13330" transform="translate(906.021 154.75)">
        <path id="Path_119733" data-name="Path 119733" d="M345.509,592.706c24.44-14.2,38.992-54.146,49.85-81.708,14.241-36.139,28.759-72.57,36.725-111.581,8.272-40.506,12.087-81.15,15.084-122.6,1.6-22.139-.269-45.7-2.151-67.793-.591-6.939-1.729-13.83-2.827-20.673-1.047-6.523-.583-13.287-2.855-19.3-1.169-3.1-4.978-.41-3.815,2.671,1.5,3.959,1.545,13.448,2.408,18.036a203.808,203.808,0,0,1,3.2,28.923c.787,18.341,3.028,36.83,1.825,55.171-2.677,40.851-6.634,81.167-14.526,121.1-7.273,36.8-20.348,72.148-34.028,106.091-5.844,14.5-11.311,29.975-18.222,43.774-7.525,15.024-19.439,35.5-32.9,43.313-2.558,1.486-.32,6.048,2.23,4.568Z" transform="translate(-342.149 -167.682)" fill="#eed2f9"/>
      </g>
    </g>
    <g id="Group_13342" data-name="Group 13342" transform="translate(427.394 191.025)">
      <ellipse id="Ellipse_1062" data-name="Ellipse 1062" cx="265" cy="30.5" rx="265" ry="30.5" transform="translate(-0.457 737.975)" fill="#cff9f6"/>
      <path id="Path_119734" data-name="Path 119734" d="M569.186,821.7H233.076A30.4,30.4,0,0,1,202.452,788.9l45.487-688.613C249.13,82.256,264.862,67.5,282.9,67.5H619.006a30.4,30.4,0,0,1,30.623,32.791L604.143,788.9C602.951,806.939,587.219,821.7,569.186,821.7Z" transform="translate(-57.026 -67.5)" fill="#8c9fea"/>
      <path id="Path_119735" data-name="Path 119735" d="M565.187,821.7H229.076A30.4,30.4,0,0,1,198.452,788.9l45.487-688.613C245.13,82.256,260.862,67.5,278.9,67.5H615.006a30.4,30.4,0,0,1,30.623,32.791L600.143,788.9C598.951,806.939,583.219,821.7,565.187,821.7Z" transform="translate(-64.346 -67.5)" fill="#b2b6f9"/>
      <g id="Group_13332" data-name="Group 13332" transform="translate(146.125 22.64)">
        <path id="Path_119736" data-name="Path 119736" d="M548.569,749.54H232.059c-16.983,0-29.961-13.176-28.838-29.285l42.835-614.97C247.176,89.179,261.989,76,278.974,76h316.51c16.983,0,29.958,13.179,28.838,29.285l-42.835,614.97C580.366,736.364,565.551,749.54,548.569,749.54Z" transform="translate(-201.737 -74.585)" fill="#fff"/>
        <path id="Path_119737" data-name="Path 119737" d="M549.484,751.87H232.974a31.086,31.086,0,0,1-22.759-9.591,27.915,27.915,0,0,1-7.491-21.208L245.556,106.1c1.177-16.872,16.578-30.6,34.334-30.6H596.4a31.1,31.1,0,0,1,22.759,9.588,27.933,27.933,0,0,1,7.5,21.208L583.815,721.272C582.638,738.142,567.237,751.87,549.484,751.87ZM279.89,78.33c-16.3,0-30.434,12.545-31.509,27.966L205.549,721.272a25.121,25.121,0,0,0,6.735,19.08,27.889,27.889,0,0,0,20.69,8.688h316.51c16.3,0,30.434-12.548,31.506-27.969L623.825,106.1a25.125,25.125,0,0,0-6.738-19.083A27.883,27.883,0,0,0,596.4,78.33Z" transform="translate(-202.653 -75.5)" fill="#2f2fbc"/>
      </g>
      <g id="Group_13336" data-name="Group 13336" transform="translate(175.408 570.245)">
        <g id="Group_13335" data-name="Group 13335">
          <g id="Group_13334" data-name="Group 13334">
            <g id="Group_13333" data-name="Group 13333">
              <path id="Path_119738" data-name="Path 119738" d="M227.15,302V284h-8.439A5.727,5.727,0,0,0,213,289.711v33.838s3.673,5.711,6.8,5.731h4.522v7.307a3.1,3.1,0,0,0,2.374,1.831,1.787,1.787,0,0,0,1.293-.538l8.3-5.77H272.92s5.711-5.114,5.17-8.238V315.13H242.319C234.777,315.682,227.15,302,227.15,302Z" transform="translate(-213 -241.55)" fill="#5634e8"/>
              <path id="Path_119739" data-name="Path 119739" d="M309.949,269h-81.19A8.793,8.793,0,0,0,220,277.759v50.4a8.793,8.793,0,0,0,8.759,8.759h55.332l13.094,12.763a2.844,2.844,0,0,0,4.885-1.947V336.92h7.989a8.91,8.91,0,0,0,8.991-8.759v-50.4A9.008,9.008,0,0,0,309.949,269ZM248.3,314.393a6.484,6.484,0,0,1-.2,1.472,2.823,2.823,0,0,1-.608,1.245,2.38,2.38,0,0,1-.908.679,2.844,2.844,0,0,1-2.224,0,2.246,2.246,0,0,1-.908-.792,3.41,3.41,0,0,1-.608-1.245,6.433,6.433,0,0,1-.2-1.358V308.62h-8.49v5.773a3.883,3.883,0,0,1-.809,2.6,2.382,2.382,0,0,1-.908.679,2.846,2.846,0,0,1-2.224,0,2.246,2.246,0,0,1-.908-.792,3.411,3.411,0,0,1-.608-1.245,6.434,6.434,0,0,1-.2-1.358V298.206a4.758,4.758,0,0,1,.2-1.358,2.824,2.824,0,0,1,.608-1.245,5.69,5.69,0,0,1,.908-.792,2.845,2.845,0,0,1,2.224,0,2.05,2.05,0,0,1,.908.679,2.332,2.332,0,0,1,.608,1.245,6.484,6.484,0,0,1,.2,1.472v4.754h8.49v-4.754a4.757,4.757,0,0,1,.2-1.358,2.824,2.824,0,0,1,.608-1.245,2.434,2.434,0,0,1,2.021-1.019,3.288,3.288,0,0,1,1.112.226,2.05,2.05,0,0,1,.908.679,2.332,2.332,0,0,1,.608,1.245,6.484,6.484,0,0,1,.2,1.472Zm21.528,1.1a1.8,1.8,0,0,1-.606.923,2.571,2.571,0,0,1-.911.577,3.013,3.013,0,0,1-1.01.116H257.195a4.488,4.488,0,0,1-1.313-.232,3.78,3.78,0,0,1-1.112-.691,2.918,2.918,0,0,1-.608-1.271,6.772,6.772,0,0,1-.2-1.5V298.092s-.962-.645-.855-.971.108-.645.323-.86a1.975,1.975,0,0,1,.541-.756,1.929,1.929,0,0,1,.753-.538,2.04,2.04,0,0,1,.863-.215,2.061,2.061,0,0,0,.971-.283h10.451a10.53,10.53,0,0,0,1.078.283,2.078,2.078,0,0,1,.968.538,5.846,5.846,0,0,1,.648.863,3.139,3.139,0,0,1,.215.968,2.571,2.571,0,0,1-.215.971,1.7,1.7,0,0,1-.648.863,2.819,2.819,0,0,1-.968.538,3.32,3.32,0,0,0-1.186.637H259.62v2.83h6.631a1.7,1.7,0,0,1,1.078-.02,4.4,4.4,0,0,1,.971.54,5.972,5.972,0,0,1,.645.86,2.3,2.3,0,0,1,0,1.941,2.342,2.342,0,0,1-.538.86,2.068,2.068,0,0,1-.971.541c-.323.107-.645.107-1.078.937H259.62v2.83H267.3a2.73,2.73,0,0,1,1.01.116,1.916,1.916,0,0,1,.911.577,2.753,2.753,0,0,1,.606.923,3.829,3.829,0,0,1,.2,1.158A4,4,0,0,1,269.828,315.494Zm18.194.937a4,4,0,0,1-.911.566,3.4,3.4,0,0,1-1.112.113H277a4.594,4.594,0,0,1-1.313-.226,3.808,3.808,0,0,1-1.112-.679,2.824,2.824,0,0,1-.608-1.245,6.485,6.485,0,0,1-.2-1.472V297.64a4.756,4.756,0,0,1,.2-1.358,2.824,2.824,0,0,1,.608-1.245,2.433,2.433,0,0,1,2.021-1.019,3.287,3.287,0,0,1,1.112.226,2.048,2.048,0,0,1,.908.679,2.33,2.33,0,0,1,.608,1.245,6.484,6.484,0,0,1,.2,1.472v13.81H286a3.288,3.288,0,0,1,1.112.226,1.925,1.925,0,0,1,.911.566,1.764,1.764,0,0,1,.606.906,3.678,3.678,0,0,1,.2,1.132A3.082,3.082,0,0,1,288.022,316.431Zm21.021-11.979a5.175,5.175,0,0,1-1.616,2.3,6.5,6.5,0,0,1-2.527,1.426,9.73,9.73,0,0,1-3.235.439H299.24v4.607a6.1,6.1,0,0,1-.2,1.426,2.7,2.7,0,0,1-.608,1.206,5.593,5.593,0,0,1-.908.767,1.855,1.855,0,0,1-1.112.221,3.362,3.362,0,0,1-1.112-.221,1.626,1.626,0,0,1-.908-.767,2.225,2.225,0,0,1-.608-1.206,6.048,6.048,0,0,1-.2-1.316V297.979a6.12,6.12,0,0,1,.2-1.426,2.886,2.886,0,0,1,.707-1.206,2.386,2.386,0,0,1,1.112-.659,4.844,4.844,0,0,1,1.316-.218h4.749a10.113,10.113,0,0,1,1.922.11c.606.108,1.112.218,1.514.328a5.9,5.9,0,0,1,1.214.549c.4.218.707.549,1.112.767a9.625,9.625,0,0,1,.908,1.1,6.7,6.7,0,0,1,.608,1.206,5.736,5.736,0,0,1,.4,1.426,7.8,7.8,0,0,1,.1,1.537A5.858,5.858,0,0,1,309.043,304.451Z" transform="translate(-200.19 -269)" fill="#5634e8"/>
              <path id="Path_119740" data-name="Path 119740" d="M252.508,280.312a2.652,2.652,0,0,0-.753-.323,2.593,2.593,0,0,0-1.941.207H248v2.83h1.814c.433.628.863.628,1.186.521a2.029,2.029,0,0,0,.863-.215c.215-.108.43-.108.538-.218l.323-.323c.11-.108.11-.215.218-.43a1.6,1.6,0,0,0,.108-.756,2.1,2.1,0,0,0-.108-.86C252.723,280.638,252.616,280.423,252.508,280.312Z" transform="translate(-148.95 -249.066)" fill="#5634e8"/>
            </g>
          </g>
        </g>
      </g>
      <path id="Path_119741" data-name="Path 119741" d="M417.168,409.289l-127.279-.359a31.377,31.377,0,0,1-31.5-34.07L267.945,241.8c1.341-18.687,17.713-33.929,36.38-33.878l127.276.359a31.377,31.377,0,0,1,31.5,34.07l-9.557,133.058C452.206,394.1,435.834,409.34,417.168,409.289Z" transform="translate(45.306 189.474)" fill="#bccef7"/>
      <path id="Path_119742" data-name="Path 119742" d="M336.421,274.475l1.478-20.59-51.233-.145-1.479,20.59,23.927,23.6Z" transform="translate(94.512 273.321)" fill="#e6af78"/>
      <path id="Path_119743" data-name="Path 119743" d="M418.184,282.935a10.783,10.783,0,0,0-8.085-11.478L375.06,262.8a5.3,5.3,0,0,1-1.455-.62l-30.128,17.116-26.469-18.109a6.2,6.2,0,0,1-2.731,1.44l-36.269,8.462a12.8,12.8,0,0,0-9.729,11.425l-1.656,23.042a5.377,5.377,0,0,0,5.36,5.9l138.342.391a6.347,6.347,0,0,0,6.2-5.867Z" transform="translate(60.509 286.942)" fill="#eff2fa"/>
      <path id="Path_119744" data-name="Path 119744" d="M286.721,253.741l-1.562,21.723c31.407,12.107,52.53-17.911,52.53-17.911l.263-3.668-51.231-.144Z" transform="translate(94.459 273.321)" fill="#d29b6e"/>
      <path id="Path_119745" data-name="Path 119745" d="M284.188,229.844l-1.545,56.937a16.447,16.447,0,0,0,5.963,13.335l11.476,9.3a16.117,16.117,0,0,0,10.151,3.56l11.75.034a18.2,18.2,0,0,0,10.661-3.5l12.806-9.234a19.272,19.272,0,0,0,7.876-13.3l6.631-56.92Z" transform="translate(89.843 229.59)" fill="#f0c087"/>
      <path id="Path_119746" data-name="Path 119746" d="M312.862,241.79c11.657.034,29.356-2.881,34.141-11.77l-62.43-.175-1.545,56.937a16.443,16.443,0,0,0,5.963,13.335l11.476,9.305a16.12,16.12,0,0,0,10.151,3.557l5.875.017c-5.827-.017-16.632-11.911-15.568-26.741.521-7.253,1.919-26.693,2.556-35.59C303.7,247.7,307.035,241.773,312.862,241.79Z" transform="translate(90.547 229.591)" fill="#e6af78"/>
      <g id="Group_13337" data-name="Group 13337" transform="translate(327.117 562.174)">
        <path id="Path_119747" data-name="Path 119747" d="M289.232,283.315l-17.888-17.167a12.538,12.538,0,0,0-3.065,7.284l-1.656,23.036a5.377,5.377,0,0,0,5.36,5.9l20.784.059.58-8.057A13.85,13.85,0,0,0,289.232,283.315Z" transform="translate(-266.608 -266.148)" fill="#e4eaf6"/>
        <path id="Path_119748" data-name="Path 119748" d="M316.324,283.351l20.345-17.059a11.085,11.085,0,0,1,2.021,7.3l-1.656,23.036a6.347,6.347,0,0,1-6.2,5.867l-20.784-.059.577-8.054A16.012,16.012,0,0,1,316.324,283.351Z" transform="translate(-187.113 -265.885)" fill="#e4eaf6"/>
      </g>
      <path id="Path_119749" data-name="Path 119749" d="M305.194,296.531l-14.759-.042,3.786-27.032,11.069.031Z" transform="translate(104.114 302.081)" fill="#b37cd1"/>
      <path id="Path_119750" data-name="Path 119750" d="M306.918,267.451l-15.183-.042-.456,6.367a3.006,3.006,0,0,0,2.994,3.3l8.719.023a3.548,3.548,0,0,0,3.467-3.28l.456-6.367Z" transform="translate(105.643 298.332)" fill="#9d5fb7"/>
      <g id="Group_13338" data-name="Group 13338" transform="translate(370.881 540.64)">
        <path id="Path_119751" data-name="Path 119751" d="M290.805,259.3l24.678,24.27a109.563,109.563,0,0,0-17.351,11.416,3.552,3.552,0,0,1-5.646-1.339l-10.415-27.825,4.355-5.983A2.913,2.913,0,0,1,290.805,259.3Z" transform="translate(-282.072 -258.539)" fill="#e4eaf6"/>
        <path id="Path_119752" data-name="Path 119752" d="M322.034,259.344l-28.156,24.123a90.506,90.506,0,0,1,15.707,11.51,3.8,3.8,0,0,0,5.835-1.3l14.408-27.754-3.495-6.005A2.8,2.8,0,0,0,322.034,259.344Z" transform="translate(-260.467 -258.435)" fill="#e4eaf6"/>
      </g>
      <path id="Path_119753" data-name="Path 119753" d="M303.251,224.265l1.31,19.493c12.186,2.553,12.551,22.312,12.4,27.955a5.59,5.59,0,0,0,.707,2.878l4.186,7.463s-.733-12.322,7.259-20.574C329.114,261.479,335.165,212.585,303.251,224.265Z" transform="translate(127.567 216.081)" fill="#542ac6"/>
      <path id="Path_119754" data-name="Path 119754" d="M313.2,240.156a5.645,5.645,0,0,1,5.264,7.584l-4.217,13.275a3.8,3.8,0,0,1-3.563,2.669h0a3.215,3.215,0,0,1-3.226-3.107l-.693-13.592a6.568,6.568,0,0,1,6.433-6.829Z" transform="translate(133.991 248.46)" fill="#f0c087"/>
      <path id="Path_119755" data-name="Path 119755" d="M294.292,226.038l4.061,2.983c-20.37,14.47-18.548,39.391-18.548,39.391,5.357,5.9,4.3,20.605,4.3,20.605l6.2-5.867s-1.01-17,10.358-23.506c10.553-6.039,19.179-2.887,28.209-2.861,24.205.068,31.645-9.2,31.283-20.506-.187-5.852-8.1-18.064-30.524-17.738C320.588,218.668,303.416,221.4,294.292,226.038Z" transform="translate(84.584 208.888)" fill="#4816b7"/>
      <path id="Path_119756" data-name="Path 119756" d="M290.587,247.316s-2.185-12.328,7.766-25.077c-20.37,14.467-18.548,39.388-18.548,39.388,5.357,5.9,4.3,20.608,4.3,20.608l6.2-5.869s-1.01-17,10.358-23.506c10.553-6.036,19.179-2.887,28.209-2.861a70.912,70.912,0,0,0,10.474-.7C320.668,249.882,310.709,235.481,290.587,247.316Z" transform="translate(84.584 215.672)" fill="#32108e"/>
      <path id="Path_119757" data-name="Path 119757" d="M286.8,240.081a6.551,6.551,0,0,0-6.351,7.553l2.307,13.293a3.2,3.2,0,0,0,3.181,2.689h0a3.81,3.81,0,0,0,3.668-3.088l2.646-13.581a5.6,5.6,0,0,0-5.448-6.866Z" transform="translate(85.674 248.323)" fill="#e6af78"/>
      <path id="Path_119758" data-name="Path 119758" d="M322.07,277.043l-20.786-.057a3.171,3.171,0,0,0-3.1,2.932l-.2,2.853,26.565.076.2-2.853A2.689,2.689,0,0,0,322.07,277.043Z" transform="translate(117.917 315.859)" fill="#e4eaf6"/>
      <path id="Path_119759" data-name="Path 119759" d="M288.076,159.394c-1.576,16.788-16.462,30.394-33.247,30.394s-29.118-13.607-27.542-30.394S243.75,129,260.535,129,289.652,142.607,288.076,159.394Z" transform="translate(-11.694 45.045)" fill="#95fce8"/>
      <g id="Group_13339" data-name="Group 13339" transform="translate(225.479 184.49)">
        <path id="Path_119760" data-name="Path 119760" d="M270.194,143.216c-.985,0-1.791,1.783-1.791,1.783l-1.93,20.554a6.927,6.927,0,0,1-1.834,2.471,4.056,4.056,0,0,0,.006-.962,13.541,13.541,0,0,0-4.443-8.62,13.355,13.355,0,0,0-3.591-2.272,9.117,9.117,0,0,0,3.079-5.929,7.389,7.389,0,0,0-7.474-8.247,9.266,9.266,0,0,0-9.022,8.247,7.524,7.524,0,0,0,1.927,5.884,17.313,17.313,0,0,0-10.191,10.938,4.25,4.25,0,0,0-.173.962,2.511,2.511,0,0,1-1.2-2.471l2.544-27.1a2.694,2.694,0,0,1,3.059-2.539h16.165a2.627,2.627,0,0,0,1.978-2.083c.093-.982-1.709-.778-1.709-.778H240.148a7.183,7.183,0,0,0-7,6.4l-2.425,25.835a5.73,5.73,0,0,0,5.8,6.4H262.9s6.645-2.612,6.433-6.141L271.264,145C271.9,144.014,271.179,143.216,270.194,143.216Zm-18.313,2.338a4.2,4.2,0,0,1,4.245,4.686A5.26,5.26,0,0,1,251,154.924a4.2,4.2,0,0,1-4.245-4.684A5.265,5.265,0,0,1,251.881,145.554Zm-13.513,23.1a.476.476,0,0,1-.062-.416A13.188,13.188,0,0,1,250.546,159a10.427,10.427,0,0,1,10.5,9.234.548.548,0,0,1-.546.6H238.742A.439.439,0,0,1,238.368,168.649Z" transform="translate(-230.693 -132.054)" fill="#fff"/>
        <path id="Path_119761" data-name="Path 119761" d="M243.712,143.567l.028.031a3.216,3.216,0,0,0,2.338.968c.076,0,.153,0,.232-.006a3.914,3.914,0,0,0,2.629-1.307l.071-.079,6.186-7.666a1.732,1.732,0,0,0-.181-2.485,1.848,1.848,0,0,0-2.524.416l-6.087,7.539-3.13-3.453a1.778,1.778,0,0,0-2.519,0,1.8,1.8,0,0,0-.238,2.519Z" transform="translate(-213.465 -132.691)" fill="#fff"/>
      </g>
      <path id="Path_119762" data-name="Path 119762" d="M374.076,196.394c-1.576,16.788-16.462,30.394-33.247,30.394s-29.118-13.607-27.542-30.394S329.75,166,346.535,166,375.652,179.607,374.076,196.394Z" transform="translate(145.686 112.755)" fill="#95fce8"/>
      <g id="Group_13340" data-name="Group 13340" transform="translate(468.859 289.2)">
        <path id="Path_119763" data-name="Path 119763" d="M356.194,180.216c-.985,0-1.791,1.783-1.791,1.783l-1.93,20.554a6.927,6.927,0,0,1-1.834,2.471,4.051,4.051,0,0,0,.006-.962,13.541,13.541,0,0,0-4.443-8.62,13.357,13.357,0,0,0-3.591-2.272,9.117,9.117,0,0,0,3.079-5.929,7.389,7.389,0,0,0-7.474-8.247,9.266,9.266,0,0,0-9.022,8.247,7.524,7.524,0,0,0,1.927,5.884,17.314,17.314,0,0,0-10.191,10.938,4.247,4.247,0,0,0-.173.962,2.511,2.511,0,0,1-1.2-2.471l2.544-27.1a2.694,2.694,0,0,1,3.059-2.539h16.165a2.626,2.626,0,0,0,1.978-2.083c.093-.982-1.709-.778-1.709-.778H326.148a7.183,7.183,0,0,0-7,6.4l-2.425,25.835a5.73,5.73,0,0,0,5.8,6.4H348.9s6.645-2.612,6.433-6.141L357.264,182C357.9,181.014,357.179,180.216,356.194,180.216Zm-18.313,2.338a4.2,4.2,0,0,1,4.245,4.686A5.26,5.26,0,0,1,337,191.924a4.2,4.2,0,0,1-4.245-4.684A5.265,5.265,0,0,1,337.881,182.554Zm-13.513,23.1a.476.476,0,0,1-.062-.416A13.188,13.188,0,0,1,336.546,196a10.427,10.427,0,0,1,10.5,9.234.548.548,0,0,1-.546.6H324.742A.439.439,0,0,1,324.368,205.649Z" transform="translate(-316.693 -169.054)" fill="#fff"/>
        <path id="Path_119764" data-name="Path 119764" d="M329.712,180.567l.028.031a3.217,3.217,0,0,0,2.338.968c.076,0,.153,0,.232-.006a3.914,3.914,0,0,0,2.629-1.307l.071-.079,6.186-7.666a1.732,1.732,0,0,0-.181-2.485,1.848,1.848,0,0,0-2.524.416l-6.087,7.539-3.13-3.453a1.778,1.778,0,0,0-2.519,0,1.8,1.8,0,0,0-.238,2.519Z" transform="translate(-299.465 -169.691)" fill="#fff"/>
      </g>
      <path id="Path_119765" data-name="Path 119765" d="M405.405,78.49H258.245A4.257,4.257,0,0,1,254,74.245h0A4.257,4.257,0,0,1,258.245,70h147.16a4.257,4.257,0,0,1,4.245,4.245h0A4.257,4.257,0,0,1,405.405,78.49Z" transform="translate(37.438 -62.925)" fill="#fff"/>
      <ellipse id="Ellipse_1063" data-name="Ellipse 1063" cx="6.5" cy="7.5" rx="6.5" ry="7.5" transform="translate(464.543 3.975)" fill="#fff"/>
      <path id="Path_119766" data-name="Path 119766" d="M483.91,215.9c-6.631-19.111-14-24.321-19.584-25.47-3.982-.818-.226,0-.226,0H277.956c-1.319-.275-6.336-1.067-9.152-5.654a21.935,21.935,0,0,1-2.666-13.59l2.128-20.942C269.342,139.66,276.423,131,284,131H479.291c7.579,0,12.9,8.66,11.821,19.244l-2.128,20.942Q486.445,193.544,483.91,215.9Z" transform="translate(59.398 48.705)" fill="#d9e1fc"/>
      <path id="Path_119767" data-name="Path 119767" d="M214.058,249.9c9.863-19.111,18.109-24.321,23.891-25.47,4.12-.818.226,0,.226,0H424.316a16.136,16.136,0,0,0,10.112-5.654,24.967,24.967,0,0,0,4.961-13.59l1.409-20.942C441.511,173.66,435.9,165,428.32,165H233.027c-7.579,0-14.359,8.66-15.073,19.244l-1.412,20.942Q215.3,227.544,214.058,249.9Z" transform="translate(-35.656 110.925)" fill="#d9e1fc"/>
      <path id="Path_119768" data-name="Path 119768" d="M541.4,123.79H236.769a8.629,8.629,0,0,1-8.7-9.9l2.009-16.98A11.478,11.478,0,0,1,241.125,87H545.757a8.629,8.629,0,0,1,8.7,9.9l-2.009,16.98A11.478,11.478,0,0,1,541.4,123.79Z" transform="translate(-10.142 -31.815)" fill="#cafdff"/>
      <path id="Path_119769" data-name="Path 119769" d="M409.195,176.49H225.245A4.257,4.257,0,0,1,221,172.245h0A4.257,4.257,0,0,1,225.245,168h183.95a4.257,4.257,0,0,1,4.245,4.245h0A4.257,4.257,0,0,1,409.195,176.49Z" transform="translate(-22.952 116.415)" fill="#aac1e8"/>
      <path id="Path_119770" data-name="Path 119770" d="M294.995,182.49h-70.75A4.257,4.257,0,0,1,220,178.245h0A4.257,4.257,0,0,1,224.245,174h70.75a4.258,4.258,0,0,1,4.245,4.245h0A4.257,4.257,0,0,1,294.995,182.49Z" transform="translate(-24.782 127.395)" fill="#aac1e8"/>
      <path id="Path_119771" data-name="Path 119771" d="M304.525,182.49h-45.28A4.257,4.257,0,0,1,255,178.245h0A4.258,4.258,0,0,1,259.245,174h45.28a4.257,4.257,0,0,1,4.245,4.245h0A4.257,4.257,0,0,1,304.525,182.49Z" transform="translate(39.268 127.395)" fill="#aac1e8"/>
      <path id="Path_119772" data-name="Path 119772" d="M305.885,182.49h-22.64A4.257,4.257,0,0,1,279,178.245h0A4.257,4.257,0,0,1,283.245,174h22.64a4.257,4.257,0,0,1,4.245,4.245h0A4.257,4.257,0,0,1,305.885,182.49Z" transform="translate(83.188 127.395)" fill="#aac1e8"/>
      <path id="Path_119773" data-name="Path 119773" d="M396.935,143.49H275.245A4.257,4.257,0,0,1,271,139.245h0A4.257,4.257,0,0,1,275.245,135h121.69a4.257,4.257,0,0,1,4.245,4.245h0A4.257,4.257,0,0,1,396.935,143.49Z" transform="translate(68.548 56.025)" fill="#aac1e8"/>
      <path id="Path_119774" data-name="Path 119774" d="M370.7,143.49h-42.45A4.257,4.257,0,0,1,324,139.245h0A4.258,4.258,0,0,1,328.245,135H370.7a4.257,4.257,0,0,1,4.245,4.245h0A4.257,4.257,0,0,1,370.7,143.49Z" transform="translate(165.538 56.025)" fill="#aac1e8"/>
      <path id="Path_119775" data-name="Path 119775" d="M322.355,149.49h-48.11A4.257,4.257,0,0,1,270,145.245h0A4.257,4.257,0,0,1,274.245,141h48.11a4.257,4.257,0,0,1,4.245,4.245h0A4.257,4.257,0,0,1,322.355,149.49Z" transform="translate(66.718 67.005)" fill="#aac1e8"/>
      <path id="Path_119776" data-name="Path 119776" d="M385.975,149.49h-87.73A4.258,4.258,0,0,1,294,145.245h0A4.258,4.258,0,0,1,298.245,141h87.73a4.257,4.257,0,0,1,4.245,4.245h0A4.258,4.258,0,0,1,385.975,149.49Z" transform="translate(110.638 67.005)" fill="#aac1e8"/>
      <path id="Path_119777" data-name="Path 119777" d="M354.225,149.49h-16.98A4.257,4.257,0,0,1,333,145.245h0A4.257,4.257,0,0,1,337.245,141h16.98a4.257,4.257,0,0,1,4.245,4.245h0A4.257,4.257,0,0,1,354.225,149.49Z" transform="translate(182.008 67.005)" fill="#aac1e8"/>
      <g id="Group_13341" data-name="Group 13341" transform="translate(500.858 62.687)">
        <path id="Path_119778" data-name="Path 119778" d="M351,111.688l-5.756-5.988a9.79,9.79,0,1,0-1.882,1.721l5.8,6.034a1.272,1.272,0,0,0,1.8.034A1.271,1.271,0,0,0,351,111.688ZM337.769,92.2a7.221,7.221,0,1,1-7.222,7.219A7.228,7.228,0,0,1,337.769,92.2Z" transform="translate(-328 -89.651)" fill="#866ff4"/>
      </g>
    </g>
    <g id="Group_13350" data-name="Group 13350" transform="translate(397.57 14.15)">
      <path id="Path_119779" data-name="Path 119779" d="M332.64,163.48A79.24,79.24,0,1,0,253.4,84.24,79.393,79.393,0,0,0,332.64,163.48Z" transform="translate(66.164 -5)" fill="#b6f2fc"/>
      <path id="Path_119780" data-name="Path 119780" d="M279.487,89C272.879,73.524,259,58.437,276.465,28.046,283.658,15.532,294.647,7.277,306,10.07c11.351-2.793,22.337,5.462,29.531,17.976C353,58.437,339.115,73.524,332.507,89L306,91.718,279.487,89Z" transform="translate(92.856 3.282)" fill="#1447ad"/>
      <path id="Path_119781" data-name="Path 119781" d="M268.993,69.939c-.829,1.339-2.9,12.718-5.185,21.344a79.225,79.225,0,0,0,99.571,0c-2.289-8.626-4.358-20.008-5.185-21.344-12.732-20.554-32.353-11.583-33.691-35.1,0,0-6.314,4.712-11.133,4.754s-10.695-4.457-10.695-4.457C301.342,58.633,281.713,49.4,268.993,69.939Z" transform="translate(85.21 49.6)" fill="#fed198"/>
      <path id="Path_119782" data-name="Path 119782" d="M299.939,38.158c-.159-1.033-.275-2.134-.342-3.322,0,0-6.314,4.712-11.133,4.754s-10.695-4.457-10.695-4.457a33.9,33.9,0,0,1-.351,3.373c.124.1.246.2.374.294l0,.017c.371.323,6.014,5.173,10.675,5.125,4.661.048,10.3-4.8,10.675-5.125l0-.017c.275-.209.54-.427.8-.642Z" transform="translate(110.117 49.6)" fill="#f0b97d"/>
      <path id="Path_119783" data-name="Path 119783" d="M285.13,65.015c.374.28,6.014,4.486,10.675,4.443,4.661.042,10.3-4.163,10.675-4.443C313.523,60.908,319.3,48.8,318,35.679c-1.067-10.748-12.7,5.012-20.795-17.164-11.461,24.01-22.349,9.806-23.591,18.907-1.367,10.024,4.262,22.64,11.518,27.6v0Z" transform="translate(102.775 19.732)" fill="#fed198"/>
      <path id="Path_119784" data-name="Path 119784" d="M293.508,41.257c-6.939,3.707-19.629,3.818-24.457,11.58-.841,1.353-2.952,17.914-5.275,27.672a79.23,79.23,0,0,0,99.749,0c-2.323-9.758-4.686-26.192-5.275-27.672-3.206-8.085-18.047-8.425-24.992-12.152-10.8,39.17-26.888,41.839-39.75.574l0,0Z" transform="translate(85.152 60.304)" fill="#d9b7f9"/>
      <g id="Group_13343" data-name="Group 13343" transform="translate(367.835 97.669)">
        <path id="Path_119785" data-name="Path 119785" d="M285.906,39.512c-.45,12.186,1.622,29.449,15.3,33.861-12.874.541-21.228-18.01-30.745-22.866l15.449-10.995Z" transform="translate(-270.457 -39.512)" fill="#fff"/>
        <path id="Path_119786" data-name="Path 119786" d="M297.381,39.512c.473,12.186-1.7,29.449-16.06,33.861,13.516.541,22.289-18.01,32.282-22.866L297.381,39.512Z" transform="translate(-250.576 -39.512)" fill="#fff"/>
      </g>
      <circle id="Ellipse_1064" data-name="Ellipse 1064" cx="90.277" cy="90.277" r="90.277" transform="translate(658.598 97.239)" fill="#866ff4"/>
      <g id="Group_13344" data-name="Group 13344" transform="translate(678.784 216.945)">
        <path id="Path_119787" data-name="Path 119787" d="M405.8,84.776c-.144,0-.286.141-.427.141s-.286-.141-.427-.141Z" transform="translate(-335.286 -75.955)" fill="#aedbf4"/>
        <path id="Path_119788" data-name="Path 119788" d="M520.511,109.1a90.226,90.226,0,0,1-140.178,0c11.8-15.783,29.857-23.6,44.643-27.44-1.138,9.384,3.7,21.893,3.838,21.61,4.975-11.374,21.61-12.37,21.61-12.37s16.635,1,21.468,12.37c.142.283,5.117-12.226,3.838-21.61C490.658,85.5,508.855,93.316,520.511,109.1Z" transform="translate(-380.333 -81.659)" fill="#aedbf4"/>
      </g>
      <path id="Path_119789" data-name="Path 119789" d="M438.684,82.031v.142c0,1.421-.721,10.522-20.234,17.772h-.866c-19.513-7.25-20.235-16.352-20.235-17.772v-.142a24.62,24.62,0,0,1,.866-5.544c5.637,6.965,12.429,11.657,19.8,11.657s14.164-4.692,19.8-11.657A24.6,24.6,0,0,1,438.684,82.031Z" transform="translate(329.59 125.821)" fill="#fed198"/>
      <g id="Group_13345" data-name="Group 13345" transform="translate(723.295 208.13)">
        <path id="Path_119790" data-name="Path 119790" d="M425.431,78.544s.993,10.236-20.331,18.2c0,0,16.635.993,21.468,12.367C426.851,109.394,436.377,84.657,425.431,78.544Z" transform="translate(-379.52 -78.544)" fill="#54c0eb"/>
        <path id="Path_119791" data-name="Path 119791" d="M401.31,78.544c-10.946,6.113-1.421,30.85-1.138,30.425C405.151,97.6,421.641,96.6,421.641,96.6,400.317,88.78,401.31,78.544,401.31,78.544Z" transform="translate(-396.061 -78.544)" fill="#54c0eb"/>
      </g>
      <g id="Group_13346" data-name="Group 13346" transform="translate(711.288 136.863)">
        <path id="Path_119792" data-name="Path 119792" d="M453.711,89.859a40.473,40.473,0,0,1-11.518,23.316,27.648,27.648,0,0,1-3.837,3.271l-2.275-7.25H411.629l-2.275,7.25c-4.551-3.413-14.076-12.939-14.218-21.9-3.979-51.036,35.118-40.234,35.118-40.234C456.553,52.469,455.7,75.644,453.711,89.859Z" transform="translate(-386.268 -53.361)" fill="#fed198"/>
        <path id="Path_119793" data-name="Path 119793" d="M422.2,77.663a14.535,14.535,0,0,1-7.25,6.4A60.1,60.1,0,0,0,417.5,76.95v-.141q.853-3.2,1.706-6.4h-.141c.569-2.131,1.138-4.265,1.562-6.4a4.023,4.023,0,0,1,1.707.569C425.465,66.572,425.324,72.4,422.2,77.663Z" transform="translate(-349.495 -33.867)" fill="#fed198"/>
        <path id="Path_119794" data-name="Path 119794" d="M401.541,84.046a14.524,14.524,0,0,1-7.25-6.4c-3.271-5.261-3.271-11.091-.144-12.939.286-.142.427-.283.713-.283a96.981,96.981,0,0,0,4.12,12.653A68.922,68.922,0,0,0,401.541,84.046Z" transform="translate(-391.819 -33.109)" fill="#fed198"/>
      </g>
      <path id="SVGCleanerId_0" data-name="SVGCleanerId 0" d="M445.784,55.9c1.138-13.077-19.618-12.226-19.618-12.226-31.419,4.551-34.832,33.835-34.832,33.835l4.265-5.117c-6.682,14.642,3.413,39.807,4.265,41.8,5.261,17.487,16.918,33.552,30.425,33.552s25.162-16.066,30.423-33.552h0v-.141c.569-2.131,1.138-4.265,1.565-6.4h-.144c2.844-11.371,5.971-22.889,5.971-22.889C476.21,43.961,445.784,55.9,445.784,55.9Zm14.362,51.563a40.473,40.473,0,0,1-11.518,23.316,38.928,38.928,0,0,1-3.837,3.269l-2.275-7.106H418.064l-2.275,7.25a44.654,44.654,0,0,1-11.515-13.508,30.116,30.116,0,0,1-2.7-8.388c-3.979-51.036,35.118-40.234,35.118-40.234C462.988,70.074,462.136,93.248,460.146,107.464Z" transform="translate(318.585 65.755)" fill="#324a5e"/>
      <g id="Group_13347" data-name="Group 13347" transform="translate(709.92 109.419)">
        <path id="SVGCleanerId_0-2" data-name="SVGCleanerId 0" d="M445.784,55.9c1.138-13.077-19.618-12.226-19.618-12.226-31.419,4.551-34.832,33.835-34.832,33.835l4.265-5.117c-6.682,14.642,3.413,39.807,4.265,41.8,5.261,17.487,16.918,33.552,30.425,33.552s25.162-16.066,30.423-33.552h0v-.141c.569-2.131,1.138-4.265,1.565-6.4h-.144c2.844-11.371,5.971-22.889,5.971-22.889C476.21,43.961,445.784,55.9,445.784,55.9Zm14.362,51.563a40.473,40.473,0,0,1-11.518,23.316,38.928,38.928,0,0,1-3.837,3.269l-2.275-7.106H418.064l-2.275,7.25a44.654,44.654,0,0,1-11.515-13.508,30.116,30.116,0,0,1-2.7-8.388c-3.979-51.036,35.118-40.234,35.118-40.234C462.988,70.074,462.136,93.248,460.146,107.464Z" transform="translate(-391.335 -43.664)" fill="#324a5e"/>
      </g>
      <path id="Path_119795" data-name="Path 119795" d="M445.784,55.9c1.138-13.077-19.618-12.226-19.618-12.226-31.419,4.551-34.832,33.835-34.832,33.835l4.265-5.117c-6.682,14.642,3.413,39.807,4.265,41.8,5.261,17.487,16.918,33.552,30.425,33.552s25.162-16.066,30.423-33.552h0v-.141c.569-2.131,1.138-4.265,1.565-6.4h-.144c2.844-11.371,5.971-22.889,5.971-22.889C476.21,43.961,445.784,55.9,445.784,55.9Zm14.362,51.563a40.473,40.473,0,0,1-11.518,23.316,38.928,38.928,0,0,1-3.837,3.269l-2.275-7.106H418.064l-2.275,7.25c-4.551-3.413-14.076-12.939-14.218-21.9-3.979-51.036,35.118-40.234,35.118-40.234C462.988,70.074,462.136,93.248,460.146,107.464Z" transform="translate(318.585 65.755)" fill="#521993"/>
      <path id="Path_119796" data-name="Path 119796" d="M401.583,74.064a13.421,13.421,0,0,0,9.953,4.551,12.93,12.93,0,0,0,9.95-4.551Z" transform="translate(337.338 121.387)" fill="#fed198"/>
      <circle id="Ellipse_1065" data-name="Ellipse 1065" cx="93.39" cy="93.39" r="93.39" transform="translate(0 107.54)" fill="#b6f2fc"/>
      <g id="Group_13348" data-name="Group 13348" transform="translate(17.942 230.639)">
        <path id="Path_119797" data-name="Path 119797" d="M174.4,90.451c-.147,0-.294.147-.589.147-.147,0-.294-.147-.589-.147Z" transform="translate(-98.508 -79.264)" fill="#866ff4"/>
        <path id="Path_119798" data-name="Path 119798" d="M297.421,111.94a93.261,93.261,0,0,1-150.6,0C160.056,97.821,178,90.321,193,86.5c-1.324,10.734,4.265,25.147,4.412,24.706C203,98.262,221.974,97.085,221.974,97.085s18.972,1.03,24.709,14.119c.147.294,5.734-13.972,4.412-24.706C266.243,90.321,284.185,97.821,297.421,111.94Z" transform="translate(-146.82 -86.498)" fill="#866ff4"/>
      </g>
      <path id="Path_119799" data-name="Path 119799" d="M211.691,90.506h0c0,1.913-1.177,12.061-22.649,20.3h-1.177c-21.471-8.235-22.648-18.384-22.648-20.3h0a29.648,29.648,0,0,1,2.646-11.176c5.884,6.617,12.944,11.028,20.591,11.028,7.5,0,14.708-4.265,20.591-11.028A27.11,27.11,0,0,1,211.691,90.506Z" transform="translate(-95.211 131.024)" fill="#fed198"/>
      <path id="Path_119800" data-name="Path 119800" d="M194.5,93.3l-4.706,9.413H173.613L168.907,93.3A43.93,43.93,0,0,1,181.7,90.062,42.9,42.9,0,0,1,194.5,93.3Z" transform="translate(-88.459 150.663)" fill="#54c0eb"/>
      <path id="Path_119801" data-name="Path 119801" d="M168.8,133.947a97.2,97.2,0,0,0,13.236.88,100.457,100.457,0,0,0,13.236-.88l-5.148-39.416H173.951Z" transform="translate(-88.649 158.842)" fill="#aedbf4"/>
      <g id="Group_13349" data-name="Group 13349" transform="translate(64.011 220.491)">
        <path id="Path_119802" data-name="Path 119802" d="M196.665,82.912s1.03,11.764-23.237,20.735c0,0,18.972,1.03,24.709,14.119C198.284,118.355,209.312,89.823,196.665,82.912Z" transform="translate(-144.196 -82.912)" fill="#fff"/>
        <path id="Path_119803" data-name="Path 119803" d="M169.093,82.912c-12.5,6.911-1.619,35.3-1.324,34.854,5.589-12.942,24.709-14.119,24.709-14.119C168.063,94.676,169.093,82.912,169.093,82.912Z" transform="translate(-163.099 -82.912)" fill="#fff"/>
      </g>
      <path id="Path_119804" data-name="Path 119804" d="M209.268,82.006c-6.175,6.619-13.53,10.884-21.766,10.884s-15.59-4.265-21.766-10.884a17.6,17.6,0,0,1,1.174-2.94C172.8,85.685,179.856,90.1,187.5,90.1s14.708-4.265,20.591-11.031A17.846,17.846,0,0,1,209.268,82.006Z" transform="translate(-94.26 130.541)" fill="#f0b97d"/>
      <path id="Path_119805" data-name="Path 119805" d="M241.385,100.874c-3.088,5.148-7.794,8.238-11.323,7.649-7.061,13.089-17.354,22.8-28.826,22.8s-21.766-9.854-28.826-22.8c-3.529.441-8.235-2.5-11.323-7.649-3.679-6.028-3.826-12.647-.294-14.855a4.608,4.608,0,0,1,2.793-.586,35.556,35.556,0,0,0,5.589,9.707c-3.382-18.678,10.443-20.738,8.088-38.68,0,0,8.677,19.267,33.533,5.736l-1.913,3.676c34.71-7.794,23.09,33.091,22.8,34.118a46.3,46.3,0,0,0,7.944-14.558,3.621,3.621,0,0,1,1.763.586C245.211,88.08,245.064,94.846,241.385,100.874Z" transform="translate(-107.993 89.172)" fill="#fed198"/>
      <path id="Path_119806" data-name="Path 119806" d="M221.122,55.386c2.793-.294,7.352,2.207,7.352,2.207-12.5-14.266-32.944-5.148-32.944-5.148,6.914-5.884,13.089-5.295,13.089-5.295-29.265-4.412-34.266,13.089-34.266,13.089-1.324-2.06-1.324-5-1.177-6.472-2.06,3.532.147,10.59.147,10.59-2.06-5.148-9.265-4.265-9.265-4.265,6.178,1.03,7.205,4.853,7.205,4.853-15.441,5.736-12.794,21.766-12.794,21.766l3.676-4.412c-4.559,17.5,7.061,31.034,7.061,31.034-3.382-18.678,10.443-20.738,8.088-38.68,0,0,8.677,19.267,33.533,5.736l-1.913,3.676c35.151-7.941,22.8,34.266,22.8,34.266,12.5-15.882,10.59-32.208,10.59-32.208l1.472,5.884C247.741,65.535,221.122,55.386,221.122,55.386Z" transform="translate(-107.877 70.832)" fill="#142a91"/>
    </g>
    <g id="Group_13351" data-name="Group 13351" transform="translate(28.05 356.198)">
      <ellipse id="Ellipse_1066" data-name="Ellipse 1066" cx="188" cy="21" rx="188" ry="21" transform="translate(-0.113 628.802)" fill="#cff9f6"/>
      <path id="Path_119807" data-name="Path 119807" d="M200.723,297.039,152.25,190.475a12.6,12.6,0,0,0-16.646-6.237h0a12.609,12.609,0,0,0-6.237,16.646L179.953,312.1a12.448,12.448,0,0,0,5.434,5.77C189.312,310.091,195.374,303.834,200.723,297.039Z" transform="translate(206.652 -21.097)" fill="#e4ecf1"/>
      <path id="Path_119808" data-name="Path 119808" d="M253.4,237.291l-94.559,25.575-11.875-22.833,99.868-27.012a12.571,12.571,0,0,1,6.566,24.27Z" transform="translate(240.912 32.835)" fill="#e4ecf1"/>
      <path id="Path_119809" data-name="Path 119809" d="M142.7,237.052a17.412,17.412,0,1,0,17.413-17.41A17.414,17.414,0,0,0,142.7,237.052Z" transform="translate(233.094 45.747)" fill="#5385a6"/>
      <path id="Path_119810" data-name="Path 119810" d="M168.11,201.043a22.678,22.678,0,1,1-22.677-22.677A22.679,22.679,0,0,1,168.11,201.043Z" transform="translate(196.602 -29.788)" fill="#5385a6"/>
      <path id="Path_119811" data-name="Path 119811" d="M124.527,320.57c2.788,55.4-7.474,166.574-11.832,210.156,4.851-22.329,39.17-181.618,43.322-238.617a215.89,215.89,0,0,0-.221-36.637C137.112,258.514,121.663,263.73,124.527,320.57Z" transform="translate(178.194 111.316)" fill="#e4ecf1"/>
      <path id="Path_119812" data-name="Path 119812" d="M122.753,324.443c2.841,56.473-8,171.656-12.138,212.575h5.3s.218-1,.589-2.7c4.358-43.582,14.62-154.753,11.832-210.156-2.864-56.84,12.585-62.056,31.269-65.1-.187-1.91-.4-3.758-.64-5.555C139.113,256.71,119.631,262.452,122.753,324.443Z" transform="translate(174.387 107.724)" fill="#3f3f3f"/>
      <path id="Path_119813" data-name="Path 119813" d="M121.31,274.251c46.556,0,53.031-28.47,53.031-28.47L161.2,232.387H108.077c-4.336,6.894-10.525,18.919-15.6,37.257A88.509,88.509,0,0,0,121.31,274.251Z" transform="translate(141.202 69.07)" fill="#29556d"/>
      <path id="Path_119814" data-name="Path 119814" d="M195.616,283.5c-3.523-26.661-12.359-40.93-17.806-46.381,0,0-6.475,28.47-53.031,28.47a88.508,88.508,0,0,1-28.829-4.607,227,227,0,0,0-5.363,25.445c14.682,5.3,26.2,19.269,23.749,68.008-2.844,56.47,6,171.606,9.4,212.575h23.537c4.135-40.919,14.979-156.1,12.138-212.575C156.284,292.444,175.766,286.7,195.616,283.5Z" transform="translate(137.734 77.732)" fill="#fff"/>
      <path id="Path_119815" data-name="Path 119815" d="M111.016,318.572c2.2-43.667-6.413-56.855-18.992-62.008a341,341,0,0,0-2.171,62.15c3.184,64,9.908,154.436,14.456,212.714h16.077C116.953,489.929,108.169,375.135,111.016,318.572Z" transform="translate(135.473 113.314)" fill="#e4ecf1"/>
      <path id="Path_119816" data-name="Path 119816" d="M118.4,265.262c-4.641-1.9-9.82-2.717-15.2-3.552-2.572-.4-5.159-.8-7.717-1.324A33.132,33.132,0,0,1,77.8,250.744c-2.4,12.644-3.693,28.515-2.27,48.065,4.471,61.354,43.913,241.32,43.913,241.32h11.238c-4.548-58.278-11.272-148.714-14.456-212.717A341.021,341.021,0,0,1,118.4,265.262Z" transform="translate(109.1 102.664)" fill="#8c9fea"/>
      <path id="Path_119817" data-name="Path 119817" d="M93.8,280.413c2.473.5,4.975.891,7.46,1.279a81.181,81.181,0,0,1,15.169,3.354,227,227,0,0,1,5.363-25.445c-22.091-7.545-31.965-21.726-31.965-21.726C87.588,240.9,80.94,251,76.463,269.463A28.076,28.076,0,0,0,93.8,280.413Z" transform="translate(111.889 79.113)" fill="#c2e0f2" opacity="0.8" style="mix-blend-mode: multiply;isolation: isolate"/>
      <path id="Path_119818" data-name="Path 119818" d="M93.629,265.459c2.558.521,5.145.925,7.717,1.324,5.38.838,10.559,1.653,15.2,3.554q.391-2.925.824-5.719a81.181,81.181,0,0,0-15.169-3.354c-2.485-.388-4.986-.775-7.46-1.279A28.076,28.076,0,0,1,77.4,249.037c-.521,2.142-1,4.409-1.452,6.781A33.132,33.132,0,0,0,93.629,265.459Z" transform="translate(110.951 99.54)" fill="#4d4d4d"/>
      <path id="Path_119819" data-name="Path 119819" d="M81.186,247.918s9.874,14.181,31.965,21.726c5.071-18.338,11.261-30.363,15.6-37.257H94.889C89.4,238.149,81.186,247.918,81.186,247.918Z" transform="translate(120.532 69.07)" fill="#153b4c"/>
      <path id="Path_119820" data-name="Path 119820" d="M79.839,172.98l116.723.444c21.522,0,29.259,11.722,29.588,33.241.475,31.124-2.986,69.437-15.019,92.677C193.744,332.923,96.709,340.564,79.839,172.98Z" transform="translate(118.067 -39.645)" fill="#fff"/>
      <path id="Path_119821" data-name="Path 119821" d="M125.952,304.422c12.554,19.419,28.1,27.426,56.051,27.426,12.342,0,25.58-3.337,35.678-6.642l12.653-25.863s-13.318,8.15-37.67,9.209-51.65-7.052-66.545-38.717c-18.607-39.561-3.659-96.854-27.077-96.854-18.5,0-22.21,8.051-25.269,13.386-3.5,6.11-4.687,14.659-4.381,24.533h33.462S106,273.555,125.952,304.422Z" transform="translate(98.865 -39.645)" fill="#e4ecf1"/>
      <path id="Path_119822" data-name="Path 119822" d="M134.381,321.721c14.724.028,35.25.011,50.787-.011a35.654,35.654,0,0,0,31.973-19.983l.509-1.041c-10.1,3.305-23.336,6.642-35.678,6.642-27.955,0-43.5-8.006-56.051-27.426-19.957-30.867-23.1-93.523-23.1-93.523H69.362c1.078,34.634,21.55,86.513,33.971,114.932A33.955,33.955,0,0,0,134.381,321.721Z" transform="translate(98.894 -15.124)" fill="#8c9fea"/>
      <path id="Path_119823" data-name="Path 119823" d="M114.868,322.551c2.454-48.738-9.067-62.707-23.749-68.008q-.437,2.793-.824,5.719c12.579,5.154,21.191,18.341,18.992,62.008-2.847,56.563,5.937,171.356,9.37,212.856h5.606C120.865,494.156,112.024,379.021,114.868,322.551Z" transform="translate(137.202 109.616)" fill="#3f3f3f"/>
      <rect id="Rectangle_5389" data-name="Rectangle 5389" width="36.481" height="27.018" transform="translate(244.387 106.486)" fill="#153b4c"/>
      <path id="Path_119824" data-name="Path 119824" d="M138.552,190.933a56.308,56.308,0,0,0,39.464-16.1,75.82,75.82,0,0,1-25.351,5.329c-36.046,1.715-57.919-16.853-67.778-28.082A56.517,56.517,0,0,0,138.552,190.933Z" transform="translate(127.305 -77.886)" fill="#e4ecf1"/>
      <path id="Path_119825" data-name="Path 119825" d="M187,136.771c-5.567,5.063-16.213,10.887-35.879,10.887h-.1c-15.387-.014-27.341-5.063-36.946-9.115-6.747-2.85-12.483-5.221-17.687-5.221a56.3,56.3,0,0,0-9.65,53.1c9.86,11.229,31.733,29.8,67.778,28.082a75.821,75.821,0,0,0,25.351-5.329,56.439,56.439,0,0,0,7.132-72.4Z" transform="translate(125.457 -112.221)" fill="#e4ecf1"/>
      <path id="Path_119826" data-name="Path 119826" d="M140.683,157.114h.093c18.746,0,28.5-5.643,33.315-10.123a56.429,56.429,0,0,0-84.563-3.948c4.989.756,10.194,2.9,15.831,5.284C115.1,152.439,126.14,157.1,140.683,157.114Z" transform="translate(135.798 -125.865)" fill="#fff"/>
      <path id="Path_119827" data-name="Path 119827" d="M142.93,150.194h.1c19.666,0,30.312-5.824,35.879-10.887-.809-1.177-1.67-2.315-2.564-3.424-4.814,4.48-14.569,10.123-33.315,10.123h-.093c-14.543-.014-25.583-4.675-35.324-8.787-5.637-2.383-10.842-4.528-15.831-5.284q-1.83,1.881-3.484,3.922c5.2,0,10.941,2.372,17.688,5.221C115.59,145.131,127.543,150.18,142.93,150.194Z" transform="translate(133.546 -114.757)" fill="#177fb3"/>
      <path id="Path_119828" data-name="Path 119828" d="M115.243,149a8.735,8.735,0,1,1-8.736-8.736A8.736,8.736,0,0,1,115.243,149Z" transform="translate(150.887 -99.522)" fill="#29556d"/>
      <path id="Path_119829" data-name="Path 119829" d="M106.226,145.455a3.259,3.259,0,1,1-3.26-3.26A3.257,3.257,0,0,1,106.226,145.455Z" transform="translate(154.428 -95.981)" fill="#fff"/>
      <path id="Path_119830" data-name="Path 119830" d="M130.4,149a8.736,8.736,0,1,1-8.736-8.736A8.736,8.736,0,0,1,130.4,149Z" transform="translate(178.62 -99.522)" fill="#29556d"/>
      <path id="Path_119831" data-name="Path 119831" d="M121.381,145.455a3.259,3.259,0,1,1-3.26-3.26A3.259,3.259,0,0,1,121.381,145.455Z" transform="translate(182.163 -95.981)" fill="#fff"/>
      <path id="Path_119832" data-name="Path 119832" d="M105.7,155.1h16.335s-1.67,4.423-8.167,4.423S105.7,155.1,105.7,155.1Z" transform="translate(165.388 -72.372)" fill="#4d4d4d"/>
      <rect id="Rectangle_5390" data-name="Rectangle 5390" width="101.015" height="56.771" transform="translate(226.727 167.02)" fill="#153b4c"/>
      <rect id="Rectangle_5391" data-name="Rectangle 5391" width="101.015" height="56.771" transform="translate(235.429 167.02)" fill="#29556d"/>
      <rect id="Rectangle_5392" data-name="Rectangle 5392" width="74.376" height="33.294" transform="translate(249.049 177.657)" fill="#fff"/>
      <path id="Path_119833" data-name="Path 119833" d="M117.64,184.238a12.606,12.606,0,0,0-16.646,6.237L50.957,300.489c6.317,5.408,12.947,10.423,19.5,15.542a12.459,12.459,0,0,0,2.833-3.931L123.88,200.884A12.607,12.607,0,0,0,117.64,184.238Z" transform="translate(65.213 -21.097)" fill="#b2b6f9"/>
      <path id="Path_119834" data-name="Path 119834" d="M98.555,321.488,77.619,225.794H51.883L73.994,326.859a12.571,12.571,0,0,0,24.562-5.371Z" transform="translate(66.908 57.005)" fill="#8c9fea"/>
      <path id="Path_119835" data-name="Path 119835" d="M85.19,237.052a17.412,17.412,0,1,1-17.413-17.41A17.414,17.414,0,0,1,85.19,237.052Z" transform="translate(64.134 45.747)" fill="#5385a6"/>
      <path id="Path_119836" data-name="Path 119836" d="M317.13,277.7c-5.02-18.143-9.362-23.127-12.438-24.25-2.193-.8-.122,0-.122,0s-47.884-.574-99.523-1.191c-.727-.269-3.472-1.05-5.332-5.414a36.142,36.142,0,0,1-2.473-12.891l-.481-19.821c-.241-10.018,2.875-18.174,6.928-18.126L308.1,197.251c4.05.048,7.565,8.283,7.805,18.3l.478,19.824Q316.758,256.534,317.13,277.7Z" transform="translate(332.012 2.482)" fill="#94abea"/>
      <path id="Path_119837" data-name="Path 119837" d="M59.834,263.657s-3.571,17.345,2.8,38.533,16.737,22.929,21.774,22.346c9.079-1.047-6.778-37.7,1.706-35.267,4.927,1.415,5.34,9.2,8.5,12.854s7.081,2.222,5.858-5.869C98.03,280.105,84.3,257.87,84.3,257.87S69.048,252.957,59.834,263.657Z" transform="translate(79.633 113.644)" fill="#5385a6"/>
      <path id="Path_119838" data-name="Path 119838" d="M110.515,201.043a22.678,22.678,0,1,1-22.677-22.677A22.677,22.677,0,0,1,110.515,201.043Z" transform="translate(91.203 -29.788)" fill="#5385a6"/>
      <path id="Path_119839" data-name="Path 119839" d="M176.119,330.537v-.057H84.308v75.052h162.2S240.479,331.813,176.119,330.537Z" transform="translate(126.246 248.581)" fill="#5385a6"/>
      <path id="Path_119840" data-name="Path 119840" d="M60.022,405.533s2.779-75.054,68.729-75.054S200.8,405.533,200.8,405.533Z" transform="translate(81.802 248.579)" fill="#29556d"/>
      <path id="Path_119841" data-name="Path 119841" d="M158,390.284c-.11-28.447-20.1-51.472-44.751-51.472S68.605,361.837,68.5,390.284Z" transform="translate(97.308 263.828)" fill="#2e3c4d"/>
      <path id="Path_119842" data-name="Path 119842" d="M186.033,223.4s13.219-11.784,34.75-16.887,28.229,2.988,30.25,7.641c3.645,8.38-36.02,13.032-29.661,19.153,3.693,3.555,10.638.009,15.381.911s5.473,5.012-2.142,8.009c-15.2,5.98-41.321,5.247-41.321,5.247S181.392,236.739,186.033,223.4Z" transform="translate(310.436 18.742)" fill="#5385a6"/>
    </g>
  </g>
</svg>
