<?xml version="1.0" encoding="UTF-8"?>
<svg width="24px" height="24px" viewBox="0 0 24 24" version="1.1" xmlns="http://www.w3.org/2000/svg" xmlns:xlink="http://www.w3.org/1999/xlink">
    <!-- Generator: Sketch 51.3 (57544) - http://www.bohemiancoding.com/sketch -->
    <title>Combined Shape</title>
    <desc>Created with Sketch.</desc>
    <defs></defs>
    <g id="Final-Design" stroke="none" stroke-width="1" fill="none" fill-rule="evenodd">
        <g id="Menu-1---Connect-Via" transform="translate(-24.000000, -636.000000)" fill="#F13C31" fill-rule="nonzero">
            <g id="Group-9" transform="translate(0.000000, 421.000000)">
                <g id="Group-7" transform="translate(24.000000, 202.000000)">
                    <path d="M17.6668387,19.3516154 C18.0613391,19.3516154 18.3811208,19.6714439 18.3811208,20.0658975 C18.3811208,20.4603511 18.0613391,20.7801795 17.6668387,20.7801795 L9.15620396,20.7801795 C8.76175038,20.7801795 8.44192189,20.4603979 8.44192189,20.0658975 C8.44192189,19.6714439 8.76170351,19.3516154 9.15620396,19.3516154 L17.6668387,19.3516154 Z M17.6668387,22.2893219 C18.0613391,22.2893219 18.3811208,22.6091504 18.3811208,23.003604 C18.3811208,23.3980575 18.0613391,23.717886 17.6668387,23.717886 L9.15620396,23.717886 C8.76175038,23.717886 8.44192189,23.3980575 8.44192189,23.003604 C8.44192189,22.6091504 8.76170351,22.2893219 9.15620396,22.2893219 L17.6668387,22.2893219 Z M14.3908349,25.2269346 C14.7853354,25.2269346 15.1050701,25.5467631 15.1050701,25.9412167 C15.1050701,26.3356703 14.7852885,26.6554988 14.3907881,26.6554988 L9.15615708,26.6554988 C8.76170351,26.6554988 8.44187501,26.3357172 8.44187501,25.9412167 C8.44187501,25.5467631 8.76165663,25.2269346 9.15615708,25.2269346 L14.3908349,25.2269346 Z M23.9135958,31.6483951 L22.5196724,27.5916873 C23.1915794,26.2181545 23.5466579,24.6905903 23.5490485,23.1536041 C23.5531735,20.4811167 22.5192036,17.9542232 20.6375452,16.0384398 C18.7555118,14.1222813 16.2476027,13.0436395 13.5757246,13.0013113 C10.8051746,12.95753 8.20098411,14.0113749 6.24315375,15.9691584 C4.35530784,17.8569575 3.30821289,20.3456947 3.27507223,23.0051977 C1.41441385,24.4061056 0.316178223,26.5902487 0.319787602,28.9231732 C0.321521979,30.0148932 0.56724101,31.1000976 1.03285092,32.0814268 L0.0727091943,34.875555 C-0.0923378694,35.3558837 0.0282247684,35.8774156 0.387381429,36.2365722 C0.640131718,36.4893694 0.973366474,36.6239477 1.31606999,36.6239477 C1.46025766,36.6239477 1.60613282,36.6001351 1.74839861,36.5512445 L4.54257368,35.5911027 C5.52390293,36.0567126 6.60910729,36.3024317 7.70082729,36.304166 C7.7047648,36.304166 7.7085148,36.304166 7.71245231,36.304166 C10.0801113,36.3040723 12.280895,35.1775241 13.6766935,33.2712563 C15.1292108,33.2330063 16.5663531,32.8813965 17.8655889,32.2458177 L21.9223436,33.639788 C22.091375,33.6978662 22.2647189,33.7261787 22.4360473,33.7261787 C22.8432977,33.7261787 23.2392982,33.566241 23.5397204,33.265772 C23.9664709,32.8389746 24.1097211,32.2192395 23.9135958,31.6483951 Z M7.71235856,34.8756019 C7.70931168,34.8756019 7.7060773,34.8756019 7.70303042,34.8756019 C6.73674806,34.8741488 5.77716884,34.6359298 4.92821475,34.186773 C4.75365205,34.094476 4.54871431,34.0784916 4.36205785,34.1426167 L1.49691395,35.1271335 L2.4814307,32.2620364 C2.54555577,32.0753331 2.52961825,31.8703954 2.4372744,31.6958795 C1.98811763,30.8468786 1.74989861,29.8873462 1.74839861,28.921017 C1.74600798,27.3666871 2.3506493,25.893451 3.40800988,24.7902935 C3.75338528,26.8957334 4.75683955,28.8358919 6.31224758,30.3636436 C7.85617122,31.8800985 9.79689219,32.8456308 11.8908946,33.1612875 C10.7852058,34.2510856 9.29476661,34.8756019 7.71235856,34.8756019 Z M22.5294692,32.2556145 C22.4888286,32.2962552 22.440641,32.3073177 22.3864535,32.2886615 L18.0435735,30.7963473 C17.9681515,30.7704253 17.8896827,30.7575816 17.8114951,30.7575816 C17.6962293,30.7575816 17.5813855,30.7854722 17.4774635,30.8405036 C16.2374777,31.4964731 14.8362886,31.8443797 13.4252557,31.846536 C13.4206151,31.846536 13.4163963,31.846536 13.4117557,31.846536 C8.68379717,31.846536 4.77849583,28.0058753 4.70358949,23.2790418 C4.66585507,20.8984922 5.57138736,18.6611927 7.25331116,16.979269 C8.93523495,15.2973452 11.1729094,14.392141 13.5531309,14.429641 C18.2845113,14.504688 22.1277969,18.4172081 22.1204844,23.1513541 C22.1182813,24.562387 21.7704215,25.963623 21.1144989,27.203515 C21.022155,27.3780308 21.0062175,27.5829686 21.0703426,27.7696719 L22.5626099,32.1125519 C22.5812193,32.1669269 22.570063,32.2150676 22.5294692,32.2556145 Z" id="Combined-Shape"></path>
                </g>
            </g>
        </g>
    </g>
</svg>