<?xml version="1.0" encoding="UTF-8"?>
<svg width="22px" height="16px" viewBox="0 0 22 16" version="1.1" xmlns="http://www.w3.org/2000/svg" xmlns:xlink="http://www.w3.org/1999/xlink">
    <!-- Generator: Sketch 51.3 (57544) - http://www.bohemiancoding.com/sketch -->
    <title>Shape</title>
    <desc>Created with Sketch.</desc>
    <defs></defs>
    <g id="Final-Design" stroke="none" stroke-width="1" fill="none" fill-rule="evenodd">
        <g id="Menu-1---Connect-Via" transform="translate(-25.000000, -558.000000)" fill="#F13C31" fill-rule="nonzero">
            <g id="Group-9" transform="translate(0.000000, 421.000000)">
                <g id="Group-6" transform="translate(25.000000, 120.000000)">
                    <path d="M20.0664062,17 L1.93359375,17 C0.865261719,17 0,17.8706328 0,18.9335938 L0,30.5351562 C0,31.6044336 0.871621094,32.46875 1.93359375,32.46875 L20.0664062,32.46875 C21.1258008,32.46875 22,31.6080859 22,30.5351562 L22,18.9335938 C22,17.8725234 21.1381758,17 20.0664062,17 Z M19.7956172,18.2890625 C19.4005625,18.6820117 12.6020039,25.4447773 12.3672656,25.6782695 C12.0020312,26.0435039 11.5164844,26.2445977 11,26.2445977 C10.4835156,26.2445977 9.99796875,26.0434609 9.63153125,25.6770664 C9.47366406,25.5200156 2.75012891,18.8319297 2.20438281,18.2890625 L19.7956172,18.2890625 Z M1.2890625,30.2727891 L1.2890625,19.1967773 L6.85944531,24.7378125 L1.2890625,30.2727891 Z M2.20519922,31.1796875 L7.77339063,25.6469023 L8.72123828,26.5897656 C9.32993359,27.1984609 10.139207,27.5336602 11,27.5336602 C11.860793,27.5336602 12.6700664,27.1984609 13.2775586,26.5909687 L14.2266094,25.6469023 L19.7948008,31.1796875 L2.20519922,31.1796875 Z M20.7109375,30.2727891 L15.1405547,24.7378125 L20.7109375,19.1967773 L20.7109375,30.2727891 Z" id="Shape"></path>
                </g>
            </g>
        </g>
    </g>
</svg>