<?xml version="1.0" encoding="UTF-8"?>
<svg width="24px" height="24px" viewBox="0 0 24 24" version="1.1" xmlns="http://www.w3.org/2000/svg" xmlns:xlink="http://www.w3.org/1999/xlink">
    <!-- Generator: Sketch 51.3 (57544) - http://www.bohemiancoding.com/sketch -->
    <title>Shape</title>
    <desc>Created with Sketch.</desc>
    <defs></defs>
    <g id="Final-Design" stroke="none" stroke-width="1" fill="none" fill-rule="evenodd">
        <g id="Menu-1---Connect-Via" transform="translate(-24.000000, -472.000000)" fill="#F13C31" fill-rule="nonzero">
            <g id="Group-9" transform="translate(0.000000, 421.000000)">
                <g id="Group-5" transform="translate(24.000000, 38.000000)">
                    <path d="M8.34927864,33.6887709 L23.3816887,18.5882983 C24.2060335,17.7640472 24.2061741,16.4297018 23.3816887,15.605357 L21.3930611,13.6166356 C20.5707319,12.7942596 19.2325427,12.7942596 18.4089947,13.6178075 C13.8997545,18.1474384 7.87429365,24.2002274 3.36481908,28.7300926 C3.31222527,28.7828271 3.25574082,28.8619991 3.22124077,28.9391554 C3.18842823,29.0125617 0.0766742177,35.9722895 0.0597991959,36.0108677 C-0.145138568,36.4790558 0.202955631,36.9954314 0.704050027,36.9954314 C0.704190652,36.9954314 0.704331277,36.9954314 0.704518778,36.9954314 L17.6717907,36.9954314 C18.0601037,36.9954314 18.3748697,36.6806185 18.3748697,36.2923524 C18.3748697,35.9040394 18.0600568,35.5892734 17.6717907,35.5892734 L4.09822628,35.5892734 L8.11963772,33.8486617 C8.20560658,33.8113492 8.28688793,33.7533179 8.34927864,33.6887709 Z M19.4044335,14.6109963 C19.6786058,14.3368241 20.124622,14.3368709 20.3987942,14.6109963 L22.3874217,16.5996707 C22.6579377,16.8701867 22.666844,17.3145623 22.3862967,17.5951095 L20.8993261,19.0887833 L17.9163379,16.105842 L19.4044335,14.6109963 Z M16.9242741,17.1023589 L19.9072623,20.0853002 L17.9230879,22.0784747 L14.9400996,19.0955333 L16.9242741,17.1023589 Z M2.08348931,34.9289913 L4.08810127,30.4454386 L6.6117139,32.9690512 L2.08348931,34.9289913 Z M4.85628976,29.2249995 L13.9480827,20.0920971 L16.931071,23.0750385 L7.83927798,32.207894 L4.85628976,29.2249995 Z" id="Shape"></path>
                </g>
            </g>
        </g>
    </g>
</svg>