<?xml version="1.0" encoding="UTF-8"?> <svg xmlns="http://www.w3.org/2000/svg" width="43" height="50" viewBox="0 0 43 50"><g fill="none" fill-rule="nonzero"><path fill="#A7A9AC" d="M21.298 10.122h.02c4.123-.04 3.52-5.55 3.52-5.55C24.677.887 21.605.917 21.299.928c-.306-.01-3.378-.041-3.551 3.632 0 0-.602 5.51 3.53 5.551 0 .01.01.01.021.01zM21.298 16.97l2.663-3.674s1.878.755 3.408 1.888c.398.296.582.47.94.826.846.847.489 5.755 0 7.551-.49 1.796-1.93 4.378-1.93 4.378A6.915 6.915 0 0 0 25.84 30l-1.837 18.01a1.126 1.126 0 0 1-1.112 1.01h-3.184a1.119 1.119 0 0 1-1.112-1.01L16.757 30a6.836 6.836 0 0 0-.54-2.061s-1.44-2.572-1.93-4.378c-.489-1.796-.846-6.704 0-7.55.358-.358.542-.531.94-.827 1.53-1.123 3.408-1.888 3.408-1.888l2.663 3.673z"></path><path fill="#000" d="M.584 25.388c.459 1.673 1.683 3.928 1.867 4.275.225.52.367 1.061.418 1.623l1.725 16.898a1.973 1.973 0 0 0 1.97 1.775h2.979c1.02 0 1.867-.765 1.97-1.775l1.724-16.898a5.428 5.428 0 0 1 .439-1.653.925.925 0 0 0-.47-1.215.925.925 0 0 0-1.214.47 7.249 7.249 0 0 0-.582 2.214L9.686 48c-.01.061-.062.112-.123.112h-2.98c-.06 0-.122-.05-.122-.112L4.716 31.092a7.552 7.552 0 0 0-.581-2.214.306.306 0 0 0-.041-.082c-.01-.02-1.296-2.337-1.725-3.898-.469-1.745-.602-5.54-.214-6.214.306-.306.439-.429.755-.664.806-.591 1.735-1.071 2.337-1.357L7.308 19.5a.928.928 0 0 0 .745.378.928.928 0 0 0 .745-.378l2.5-3.439a.94.94 0 0 0-.204-1.296.94.94 0 0 0-1.296.204l-1.755 2.409-1.735-2.398a.926.926 0 0 0-1.092-.317c-.071.03-1.887.766-3.398 1.878-.428.316-.632.51-.99.867-1.306 1.306-.581 6.735-.244 7.98zM7.971 13.46h.174c1.184-.031 2.184-.46 2.898-1.266 1.52-1.714 1.306-4.572 1.265-4.929C12.155 4.112 9.961 3 8.135 3H7.97c-1.826 0-4.01 1.122-4.173 4.265-.03.357-.255 3.215 1.265 4.929.725.806 1.725 1.245 2.908 1.265zM5.645 7.428v-.062c.102-2.204 1.5-2.53 2.326-2.53h.153c.827 0 2.225.326 2.327 2.53v.051c.071.653.051 2.562-.816 3.541-.378.429-.898.643-1.582.643h-.02c-.684-.01-1.204-.214-1.582-.643-.857-.97-.867-2.877-.806-3.53zM29.4 28.408a.911.911 0 0 0-.47 1.214c.235.531.378 1.082.44 1.654l1.724 16.897a1.973 1.973 0 0 0 1.97 1.776h2.979c1.02 0 1.867-.765 1.97-1.776l1.724-16.897a5.592 5.592 0 0 1 .418-1.623c.184-.337 1.418-2.592 1.867-4.275.337-1.245 1.072-6.674-.234-7.98a7.436 7.436 0 0 0-.99-.867c-1.51-1.113-3.316-1.847-3.398-1.878a.909.909 0 0 0-1.092.316l-1.755 2.409-1.765-2.398c-.296-.419-.878-.5-1.296-.204a.937.937 0 0 0-.204 1.295l2.5 3.44a.928.928 0 0 0 .745.377.928.928 0 0 0 .745-.378l2.06-2.837c.603.286 1.531.766 2.338 1.358.306.224.438.357.755.663.387.673.255 4.47-.215 6.214-.428 1.561-1.714 3.878-1.724 3.898-.01.02-.03.051-.041.082a7.249 7.249 0 0 0-.582 2.214L36.145 48c-.01.061-.061.112-.123.112h-2.98c-.06 0-.122-.05-.122-.112l-1.724-16.898a7.552 7.552 0 0 0-.582-2.214c-.204-.48-.745-.684-1.214-.48zM34.451 13.46h.173c1.184-.021 2.184-.46 2.909-1.266 1.52-1.714 1.306-4.572 1.265-4.929C38.645 4.112 36.461 3 34.624 3h-.163c-1.826 0-4.01 1.122-4.173 4.265-.03.357-.255 3.215 1.265 4.929.714.806 1.714 1.235 2.898 1.265zm-2.327-6.031v-.062c.103-2.204 1.5-2.53 2.327-2.53h.153c.827 0 2.225.326 2.327 2.53v.051c.071.653.05 2.562-.817 3.541-.377.429-.898.633-1.581.643h-.02c-.684-.01-1.205-.214-1.582-.643-.858-.97-.868-2.877-.807-3.53zM13.635 15.357c-1.378 1.378-.602 7.123-.235 8.45.49 1.785 1.796 4.193 1.99 4.54.245.561.398 1.143.459 1.745l1.837 18.01a2.033 2.033 0 0 0 2.04 1.837H22.9a2.056 2.056 0 0 0 2.04-1.837l1.838-18.01a5.729 5.729 0 0 1 .459-1.745c.194-.357 1.5-2.755 1.99-4.54.357-1.327 1.142-7.072-.235-8.45a8.261 8.261 0 0 0-1.041-.918c-1.602-1.184-3.53-1.96-3.612-2a.909.909 0 0 0-1.092.316l-1.949 2.643-1.918-2.643a.926.926 0 0 0-1.092-.316c-.082.03-2 .816-3.612 2-.45.337-.674.54-1.041.918zm1.326 1.286c.337-.337.48-.47.817-.714.877-.653 1.898-1.174 2.55-1.48l2.225 3.061a.928.928 0 0 0 .745.378.928.928 0 0 0 .745-.378l2.224-3.061c.643.306 1.664.827 2.551 1.48.337.244.48.377.817.714.428.694.296 4.786-.225 6.673-.459 1.674-1.826 4.143-1.847 4.164-.01.02-.03.05-.04.081a7.754 7.754 0 0 0-.623 2.347l-1.837 18.01a.19.19 0 0 1-.194.174h-3.173a.19.19 0 0 1-.194-.174l-1.837-18.01a7.542 7.542 0 0 0-.622-2.347.306.306 0 0 0-.041-.081c-.01-.02-1.388-2.5-1.847-4.174-.49-1.877-.622-5.97-.194-6.663zM21.206 11.04h.184c1.265-.02 2.286-.469 3.05-1.336 1.613-1.806 1.368-4.847 1.338-5.214C25.614 1.173 23.318 0 21.39 0h-.184c-1.918 0-4.224 1.173-4.388 4.49-.03.367-.275 3.398 1.337 5.204.765.867 1.796 1.316 3.051 1.347zm-2.54-6.377v-.061c.112-2.49 1.816-2.755 2.54-2.755h.173c.725 0 2.43.265 2.541 2.755v.051c.072.704.062 2.765-.877 3.816-.419.47-.99.704-1.735.704h-.03c-.745-.01-1.317-.234-1.735-.704-.939-1.04-.95-3.102-.878-3.806z"></path></g></svg> 