<?xml version="1.0" encoding="UTF-8"?>
<svg xmlns="http://www.w3.org/2000/svg" xmlns:xlink="http://www.w3.org/1999/xlink" width="375pt" height="374.999991pt" viewBox="0 0 375 374.999991" version="1.2">
<g id="surface1">
<path style=" stroke:none;fill-rule:nonzero;fill:rgb(30.589294%,38.038635%,71.369934%);fill-opacity:1;" d="M 353.320312 175.445312 L 44.96875 175.445312 L 44.96875 8.585938 L 353.320312 8.585938 L 353.320312 175.445312 "/>
<path style=" stroke:none;fill-rule:nonzero;fill:rgb(40.388489%,47.059631%,76.858521%);fill-opacity:1;" d="M 308.351562 310.214844 L 0 310.214844 L 0 53.507812 L 308.351562 53.507812 L 308.351562 310.214844 "/>
<path style=" stroke:none;fill-rule:nonzero;fill:rgb(26.269531%,33.729553%,68.629456%);fill-opacity:1;" d="M 353.320312 34.257812 L 44.96875 34.257812 L 44.96875 8.585938 L 353.320312 8.585938 L 353.320312 34.257812 "/>
<path style=" stroke:none;fill-rule:nonzero;fill:rgb(54.508972%,59.609985%,83.529663%);fill-opacity:1;" d="M 61.027344 21.421875 C 61.027344 23.195312 59.589844 24.628906 57.816406 24.628906 C 56.039062 24.628906 54.605469 23.195312 54.605469 21.421875 C 54.605469 19.648438 56.039062 18.210938 57.816406 18.210938 C 59.589844 18.210938 61.027344 19.648438 61.027344 21.421875 "/>
<path style=" stroke:none;fill-rule:nonzero;fill:rgb(54.508972%,59.609985%,83.529663%);fill-opacity:1;" d="M 73.875 21.421875 C 73.875 23.195312 72.4375 24.628906 70.664062 24.628906 C 68.886719 24.628906 67.453125 23.195312 67.453125 21.421875 C 67.453125 19.648438 68.886719 18.210938 70.664062 18.210938 C 72.4375 18.210938 73.875 19.648438 73.875 21.421875 "/>
<path style=" stroke:none;fill-rule:nonzero;fill:rgb(54.508972%,59.609985%,83.529663%);fill-opacity:1;" d="M 86.722656 21.421875 C 86.722656 23.195312 85.289062 24.628906 83.511719 24.628906 C 81.738281 24.628906 80.300781 23.195312 80.300781 21.421875 C 80.300781 19.648438 81.738281 18.210938 83.511719 18.210938 C 85.289062 18.210938 86.722656 19.648438 86.722656 21.421875 "/>
<path style=" stroke:none;fill-rule:nonzero;fill:rgb(15.289307%,24.708557%,52.549744%);fill-opacity:1;" d="M 372.589844 213.949219 L 301.925781 213.949219 L 260.644531 266.976562 C 258.210938 270.105469 256.371094 273.660156 255.234375 277.453125 L 228.050781 367.976562 L 211.992188 380.808594 L 263.382812 380.808594 L 263.382812 367.976562 L 289.078125 284.546875 L 321.78125 239.621094 L 331.476562 239.621094 L 320.96875 269.621094 C 319.019531 275.183594 318.640625 281.175781 319.878906 286.941406 L 337.257812 367.976562 L 321.199219 380.808594 L 375 380.808594 L 353.320312 284.546875 L 372.589844 213.949219 "/>
<path style=" stroke:none;fill-rule:nonzero;fill:rgb(26.269531%,33.729553%,68.629456%);fill-opacity:1;" d="M 308.351562 79.179688 L 0 79.179688 L 0 53.507812 L 308.351562 53.507812 L 308.351562 79.179688 "/>
<path style=" stroke:none;fill-rule:nonzero;fill:rgb(54.508972%,59.609985%,83.529663%);fill-opacity:1;" d="M 16.058594 66.34375 C 16.058594 68.117188 14.625 69.554688 12.847656 69.554688 C 11.074219 69.554688 9.636719 68.117188 9.636719 66.34375 C 9.636719 64.570312 11.074219 63.136719 12.847656 63.136719 C 14.625 63.136719 16.058594 64.570312 16.058594 66.34375 "/>
<path style=" stroke:none;fill-rule:nonzero;fill:rgb(54.508972%,59.609985%,83.529663%);fill-opacity:1;" d="M 28.90625 66.34375 C 28.90625 68.117188 27.472656 69.554688 25.695312 69.554688 C 23.921875 69.554688 22.484375 68.117188 22.484375 66.34375 C 22.484375 64.570312 23.921875 63.136719 25.695312 63.136719 C 27.472656 63.136719 28.90625 64.570312 28.90625 66.34375 "/>
<path style=" stroke:none;fill-rule:nonzero;fill:rgb(54.508972%,59.609985%,83.529663%);fill-opacity:1;" d="M 41.757812 66.34375 C 41.757812 68.117188 40.320312 69.554688 38.542969 69.554688 C 36.769531 69.554688 35.332031 68.117188 35.332031 66.34375 C 35.332031 64.570312 36.769531 63.136719 38.542969 63.136719 C 40.320312 63.136719 41.757812 64.570312 41.757812 66.34375 "/>
<path style=" stroke:none;fill-rule:nonzero;fill:rgb(30.589294%,38.038635%,71.369934%);fill-opacity:1;" d="M 269.808594 149.773438 L 38.542969 149.773438 L 38.542969 104.851562 L 269.808594 104.851562 L 269.808594 149.773438 "/>
<path style=" stroke:none;fill-rule:nonzero;fill:rgb(23.919678%,73.728943%,53.729248%);fill-opacity:1;" d="M 367.667969 140.148438 L 372.589844 213.949219 L 301.925781 213.949219 L 289.078125 143.355469 L 276.230469 156.191406 L 258.46875 137.253906 L 272.503906 124.160156 C 276.960938 119.996094 282.839844 117.6875 288.933594 117.6875 L 343.625 117.6875 C 356.316406 117.6875 366.824219 127.511719 367.667969 140.148438 "/>
<path style=" stroke:none;fill-rule:nonzero;fill:rgb(96.078491%,49.01886%,76.078796%);fill-opacity:1;" d="M 258.46875 137.253906 L 276.230469 156.191406 L 253.519531 178.878906 C 247.492188 184.902344 239.324219 188.28125 230.804688 188.28125 L 167.023438 188.28125 L 179.871094 162.609375 L 231.261719 162.609375 L 258.46875 137.253906 "/>
<path style=" stroke:none;fill-rule:nonzero;fill:rgb(96.078491%,49.01886%,76.078796%);fill-opacity:1;" d="M 361.703125 158.929688 L 353.230469 195.628906 C 351.238281 204.253906 345.773438 211.664062 338.125 216.125 L 265.792969 258.320312 C 263.945312 259.40625 261.578125 258.402344 261.054688 256.332031 L 256.125 236.628906 C 255.859375 235.5625 256.355469 234.449219 257.328125 233.925781 L 268.746094 227.835938 L 271.1875 220.585938 C 271.484375 219.710938 272.457031 219.261719 273.316406 219.613281 L 279.441406 222.125 L 326.746094 193.09375 L 336.828125 152.984375 L 336.832031 152.984375 L 361.703125 158.929688 "/>
<path style=" stroke:none;fill-rule:nonzero;fill:rgb(23.919678%,73.728943%,53.729248%);fill-opacity:1;" d="M 366.140625 138.285156 C 366.140625 139.226562 366.039062 140.179688 365.8125 141.140625 L 361.703125 158.929688 L 336.832031 152.984375 L 341.289062 135.238281 C 342.695312 129.636719 347.738281 125.707031 353.519531 125.707031 C 360.648438 125.707031 366.140625 131.523438 366.140625 138.285156 "/>
<path style=" stroke:none;fill-rule:nonzero;fill:rgb(18.03894%,58.039856%,43.919373%);fill-opacity:1;" d="M 337.640625 152.984375 C 337.382812 152.984375 337.121094 152.953125 336.859375 152.886719 C 335.136719 152.457031 334.089844 150.710938 334.523438 148.996094 L 338.175781 134.457031 C 338.851562 131.753906 340.242188 129.269531 342.191406 127.273438 C 343.429688 126.007812 345.460938 125.976562 346.730469 127.214844 C 348.003906 128.453125 348.027344 130.484375 346.789062 131.753906 C 345.632812 132.9375 344.808594 134.414062 344.40625 136.019531 L 340.753906 150.554688 C 340.390625 152.011719 339.082031 152.984375 337.640625 152.984375 "/>
<path style=" stroke:none;fill-rule:nonzero;fill:rgb(26.269531%,33.729553%,68.629456%);fill-opacity:1;" d="M 70.664062 310.214844 C 49.375 310.214844 32.121094 292.976562 32.121094 271.710938 C 32.121094 250.441406 49.375 233.203125 70.664062 233.203125 C 91.953125 233.203125 109.207031 250.441406 109.207031 271.710938 C 109.207031 292.976562 91.953125 310.214844 70.664062 310.214844 Z M 141.328125 284.546875 L 141.328125 258.875 L 127.027344 258.875 C 125.566406 252.429688 123.023438 246.398438 119.601562 240.972656 L 129.714844 230.871094 L 111.542969 212.714844 L 101.433594 222.820312 C 96.003906 219.402344 89.964844 216.863281 83.511719 215.402344 L 83.511719 201.117188 L 57.816406 201.117188 L 57.816406 215.402344 C 51.363281 216.863281 45.324219 219.402344 39.894531 222.820312 L 29.78125 212.714844 L 11.613281 230.871094 L 21.726562 240.972656 C 18.300781 246.398438 15.761719 252.429688 14.296875 258.875 L 0 258.875 L 0 284.546875 L 14.296875 284.546875 C 15.761719 290.992188 18.300781 297.023438 21.726562 302.449219 L 11.613281 312.550781 L 29.78125 330.703125 L 39.894531 320.601562 C 45.324219 324.019531 51.363281 326.558594 57.816406 328.019531 L 57.816406 342.304688 L 83.511719 342.304688 L 83.511719 328.019531 C 89.964844 326.558594 96.003906 324.019531 101.433594 320.601562 L 111.542969 330.703125 L 129.714844 312.550781 L 119.601562 302.449219 C 123.023438 297.023438 125.566406 290.992188 127.027344 284.546875 L 141.328125 284.546875 "/>
<path style=" stroke:none;fill-rule:nonzero;fill:rgb(30.589294%,38.038635%,71.369934%);fill-opacity:1;" d="M 199.144531 271.710938 C 188.5 271.710938 179.871094 263.089844 179.871094 252.457031 C 179.871094 241.824219 188.5 233.203125 199.144531 233.203125 C 209.785156 233.203125 218.414062 241.824219 218.414062 252.457031 C 218.414062 263.089844 209.785156 271.710938 199.144531 271.710938 Z M 244.113281 260.625 L 244.113281 244.289062 L 235.011719 244.289062 C 234.082031 240.1875 232.464844 236.351562 230.289062 232.898438 L 236.722656 226.464844 L 225.160156 214.917969 L 218.722656 221.34375 C 215.265625 219.167969 211.421875 217.554688 207.320312 216.625 L 207.320312 207.535156 L 190.964844 207.535156 L 190.964844 216.625 C 186.863281 217.554688 183.019531 219.167969 179.5625 221.34375 L 173.128906 214.917969 L 161.566406 226.464844 L 168 232.898438 C 165.820312 236.351562 164.207031 240.1875 163.273438 244.289062 L 154.175781 244.289062 L 154.175781 260.625 L 163.273438 260.625 C 164.207031 264.726562 165.820312 268.5625 168 272.015625 L 161.566406 278.449219 L 173.128906 289.996094 L 179.5625 283.570312 C 183.019531 285.746094 186.863281 287.359375 190.964844 288.289062 L 190.964844 297.378906 L 207.320312 297.378906 L 207.320312 288.289062 C 211.421875 287.359375 215.265625 285.746094 218.722656 283.570312 L 225.160156 289.996094 L 236.722656 278.449219 L 230.289062 272.015625 C 232.464844 268.5625 234.082031 264.726562 235.011719 260.625 L 244.113281 260.625 "/>
<path style=" stroke:none;fill-rule:nonzero;fill:rgb(26.269531%,33.729553%,68.629456%);fill-opacity:1;" d="M 54.605469 124.105469 C 54.605469 122.332031 56.042969 120.894531 57.816406 120.894531 C 59.589844 120.894531 61.027344 122.332031 61.027344 124.105469 C 61.027344 125.875 59.589844 127.3125 57.816406 127.3125 C 56.042969 127.3125 54.605469 125.875 54.605469 124.105469 Z M 72.933594 134.671875 L 66.5 128.242188 C 67.105469 126.988281 67.453125 125.585938 67.453125 124.105469 C 67.453125 118.796875 63.128906 114.476562 57.816406 114.476562 C 52.503906 114.476562 48.179688 118.796875 48.179688 124.105469 C 48.179688 129.414062 52.503906 133.730469 57.816406 133.730469 C 59.300781 133.730469 60.703125 133.382812 61.960938 132.78125 L 68.394531 139.207031 C 69.019531 139.835938 69.84375 140.148438 70.664062 140.148438 C 71.484375 140.148438 72.308594 139.835938 72.933594 139.207031 C 74.191406 137.953125 74.191406 135.921875 72.933594 134.671875 "/>
<path style=" stroke:none;fill-rule:nonzero;fill:rgb(96.078491%,49.01886%,76.078796%);fill-opacity:1;" d="M 312.484375 98.234375 L 312.484375 122.296875 C 312.484375 126.730469 316.078125 130.320312 320.515625 130.320312 C 324.949219 130.320312 328.546875 126.730469 328.546875 122.296875 L 328.546875 95.824219 L 312.484375 98.234375 "/>
<path style=" stroke:none;fill-rule:nonzero;fill:rgb(90.589905%,21.958923%,54.899597%);fill-opacity:1;" d="M 312.484375 114.277344 C 317.804688 114.277344 322.121094 109.96875 322.121094 104.648438 L 322.121094 95.023438 L 312.484375 95.023438 L 312.484375 114.277344 "/>
<path style=" stroke:none;fill-rule:nonzero;fill:rgb(96.078491%,49.01886%,76.078796%);fill-opacity:1;" d="M 314.089844 111.066406 C 322.074219 111.066406 328.546875 104.601562 328.546875 96.628906 L 328.546875 75.769531 L 306.0625 75.769531 L 306.0625 103.046875 C 306.0625 107.476562 309.65625 111.066406 314.089844 111.066406 "/>
<path style=" stroke:none;fill-rule:nonzero;fill:rgb(15.289307%,24.708557%,52.549744%);fill-opacity:1;" d="M 333.363281 94.222656 L 333.363281 81.53125 C 333.363281 74.359375 327.542969 68.550781 320.371094 68.550781 C 318.351562 68.550781 316.363281 69.019531 314.558594 69.921875 L 314.054688 70.175781 C 311.964844 71.21875 309.664062 71.757812 307.328125 71.757812 L 294.820312 71.757812 L 294.820312 79.601562 C 294.820312 85.90625 299.933594 91.011719 306.238281 91.011719 C 308.226562 91.011719 310.179688 90.496094 311.90625 89.507812 L 320.515625 84.59375 C 320.515625 89.914062 324.828125 94.222656 330.152344 94.222656 L 333.363281 94.222656 "/>
<path style=" stroke:none;fill-rule:nonzero;fill:rgb(96.078491%,49.01886%,76.078796%);fill-opacity:1;" d="M 333.429688 93.417969 C 333.429688 90.722656 331.242188 88.539062 328.546875 88.539062 C 325.84375 88.539062 323.660156 90.722656 323.660156 93.417969 C 323.660156 96.113281 325.84375 98.296875 328.546875 98.296875 C 331.242188 98.296875 333.429688 96.113281 333.429688 93.417969 "/>
<path style=" stroke:none;fill-rule:nonzero;fill:rgb(95.289612%,59.21936%,6.269836%);fill-opacity:1;" d="M 258.691406 85.890625 C 247.65625 108.121094 220.675781 117.203125 198.425781 106.183594 C 176.175781 95.160156 167.082031 68.207031 178.113281 45.976562 C 189.148438 23.75 216.128906 14.664062 238.378906 25.6875 C 260.628906 36.710938 269.722656 63.664062 258.691406 85.890625 Z M 244.085938 14.1875 C 215.480469 0.015625 180.789062 11.699219 166.605469 40.277344 C 152.417969 68.855469 164.109375 103.507812 192.71875 117.679688 C 221.328125 131.851562 256.015625 120.171875 270.199219 91.59375 C 284.382812 63.015625 272.691406 28.359375 244.085938 14.1875 "/>
<path style=" stroke:none;fill-rule:nonzero;fill:rgb(95.289612%,59.21936%,6.269836%);fill-opacity:1;" d="M 138.421875 205.398438 L 155.691406 213.949219 L 192.789062 139.203125 L 175.523438 130.652344 L 138.421875 205.398438 "/>
<path style=" stroke:none;fill-rule:nonzero;fill:rgb(97.24884%,75.289917%,6.269836%);fill-opacity:1;" d="M 178.402344 132.078125 L 189.914062 137.78125 L 198.472656 120.53125 L 186.964844 114.828125 L 178.402344 132.078125 "/>
<path style=" stroke:none;fill-rule:nonzero;fill:rgb(73.329163%,76.469421%,90.979004%);fill-opacity:1;" d="M 189.191406 54.675781 C 190.375 54.675781 191.511719 54.019531 192.070312 52.890625 C 192.808594 51.410156 193.667969 49.988281 194.632812 48.660156 C 195.675781 47.222656 195.355469 45.21875 193.917969 44.175781 C 192.480469 43.136719 190.472656 43.457031 189.433594 44.890625 C 188.257812 46.503906 187.210938 48.238281 186.316406 50.039062 C 185.53125 51.625 186.179688 53.554688 187.765625 54.339844 C 188.222656 54.566406 188.714844 54.675781 189.191406 54.675781 "/>
<path style=" stroke:none;fill-rule:nonzero;fill:rgb(73.329163%,76.469421%,90.979004%);fill-opacity:1;" d="M 200.558594 41.878906 C 201.160156 41.878906 201.769531 41.714844 202.3125 41.359375 C 211.003906 35.691406 222.171875 35.03125 231.457031 39.628906 C 233.046875 40.417969 234.972656 39.769531 235.761719 38.179688 C 236.550781 36.589844 235.902344 34.667969 234.3125 33.878906 C 222.996094 28.273438 209.386719 29.082031 198.796875 35.984375 C 197.316406 36.953125 196.894531 38.941406 197.867188 40.425781 C 198.480469 41.371094 199.511719 41.878906 200.558594 41.878906 "/>
<path style=" stroke:none;fill-rule:nonzero;fill:rgb(96.078491%,49.01886%,76.078796%);fill-opacity:1;" d="M 153.417969 188.28125 L 146.523438 188.28125 C 144.136719 188.28125 142.582031 185.769531 143.652344 183.636719 L 153.289062 164.382812 C 153.832031 163.296875 154.945312 162.609375 156.160156 162.609375 L 159.839844 162.609375 C 164.617188 162.609375 167.722656 167.628906 165.585938 171.898438 L 159.164062 184.734375 C 158.074219 186.90625 155.851562 188.28125 153.417969 188.28125 "/>
</g>
</svg>
