<?xml version="1.0" encoding="UTF-8"?> <svg xmlns="http://www.w3.org/2000/svg" width="41" height="50" viewBox="0 0 41 50"><g fill="none" fill-rule="nonzero"><path fill="#3C92CA" d="M26.663 42.53l-6.49 6.49-.01-.01-6.48-6.49a4.046 4.046 0 0 1 0-5.724 4.056 4.056 0 0 1 5.725 0l.786.786.775-.776a4.046 4.046 0 0 1 5.725 0c1.561 1.582 1.55 4.143-.03 5.725z"></path><path fill="#000" d="M12.888 19.316v6.786c-1.551.776-6.49 3.388-11.072 7.153a4.697 4.697 0 0 0-1.724 3.663v5.398c0 .51.418.929.928.929s.929-.418.929-.929v-5.398c0-.867.388-1.683 1.051-2.234 4.816-3.96 10.04-6.592 11.03-7.082.44-.214.715-.663.715-1.143v-7.602a.913.913 0 0 0-.408-.765 2.622 2.622 0 0 1-1.174-2.184V8.02a6.175 6.175 0 0 1 6.174-6.173h1.694a6.175 6.175 0 0 1 6.173 6.173v7.878c0 .878-.439 1.694-1.173 2.184a.926.926 0 0 0-.409.765v7.602c0 .48.286.939.715 1.143 1 .49 6.214 3.122 11.03 7.081a2.904 2.904 0 0 1 1.051 2.235v5.408c0 .51.419.929.929.929s.929-.418.929-.929v-5.398a4.73 4.73 0 0 0-1.725-3.663c-4.582-3.765-9.52-6.367-11.071-7.153v-6.786a4.472 4.472 0 0 0 1.581-3.418V8.02c0-4.428-3.602-8.02-8.02-8.02h-1.694c-4.429 0-8.02 3.602-8.02 8.02v7.878a4.387 4.387 0 0 0 1.56 3.418z"></path><path fill="#000" d="M23.816 34.694c-1.326 0-2.581.52-3.52 1.46l-.123.122-.122-.123a4.956 4.956 0 0 0-3.52-1.46c-1.327 0-2.572.521-3.51 1.46a4.939 4.939 0 0 0-1.46 3.52c0 1.327.52 2.572 1.46 3.51l6.49 6.49.01.01a.928.928 0 0 0 .652.276c.245 0 .48-.102.654-.275l6.49-6.49a4.933 4.933 0 0 0 1.459-3.51c0-1.327-.51-2.582-1.46-3.52a4.86 4.86 0 0 0-3.5-1.47zm2.194 7.184l-5.837 5.836-5.846-5.847a3.12 3.12 0 0 1-.01-4.408 3.078 3.078 0 0 1 2.203-.908 3.11 3.11 0 0 1 2.215.918l.785.786a.928.928 0 0 0 .653.276c.245 0 .48-.102.654-.276l.775-.775a3.105 3.105 0 0 1 4.408 0c.592.591.919 1.377.908 2.204a3.047 3.047 0 0 1-.908 2.194z"></path></g></svg> 