<?xml version="1.0" encoding="UTF-8"?> <svg xmlns="http://www.w3.org/2000/svg" width="50" height="50" viewBox="0 0 50 50"><g fill="none" fill-rule="nonzero"><path fill="#A7A9AC" d="M30.374 38.022c-7.214 2.99-15.49-.44-18.48-7.653-2.99-7.215.44-15.49 7.654-18.48 7.214-2.99 15.49.439 18.48 7.653 2.989 7.214-.44 15.49-7.654 18.48z"></path><path fill="#000" d="M44.17 10.103a.918.918 0 0 0 .265-.653l-.06-5.03a.939.939 0 0 0-.94-.919.939.939 0 0 0-.918.939l.03 2.796-.132-.133c-9.847-9.622-25.684-9.439-35.306.408A24.91 24.91 0 0 0 .527 19.848a25.036 25.036 0 0 0 .939 13.561.92.92 0 0 0 .867.613c.102 0 .215-.02.317-.051a.928.928 0 0 0 .56-1.184C.19 24.379 2.2 15.185 8.436 8.807 17.343-.305 32.007-.478 41.12 8.43l.143.143-2.796.03a.939.939 0 0 0-.918.939.93.93 0 0 0 .928.918h.01l5.03-.06a.995.995 0 0 0 .654-.297zM48.466 16.501a.928.928 0 0 0-1.184-.561.928.928 0 0 0-.561 1.184c3.02 8.408 1.01 17.602-5.224 23.98a22.957 22.957 0 0 1-16.266 6.958c-6.183.082-12.01-2.265-16.418-6.571l-.143-.143 2.796-.03a.939.939 0 0 0 .918-.94.925.925 0 0 0-.938-.918l-5.031.062a.939.939 0 0 0-.918.938l.06 5.031a.93.93 0 0 0 .93.918h.01a.939.939 0 0 0 .918-.938l-.03-2.796.142.143c4.704 4.591 10.878 7.112 17.439 7.112h.296c6.663-.082 12.908-2.745 17.571-7.51a24.91 24.91 0 0 0 6.582-12.337 25.21 25.21 0 0 0-.95-13.582z"></path><path fill="#000" d="M24.956 9.889c-1.98 0-3.919.388-5.755 1.153a14.994 14.994 0 0 0-8.153 8.153 14.96 14.96 0 0 0 0 11.53 15.024 15.024 0 0 0 13.928 9.307c1.98 0 3.918-.388 5.755-1.153 7.674-3.174 11.337-12.01 8.153-19.684A15.024 15.024 0 0 0 24.956 9.89zm11.612 8.735h-3.051c-.602-2.204-1.51-4.082-2.643-5.5a13.214 13.214 0 0 1 5.694 5.5zM12.538 29.43a13.123 13.123 0 0 1 0-8.96h4.203a25.076 25.076 0 0 0-.387 4.48c0 1.561.153 3.061.418 4.48h-4.235zm5.663-4.48c0-1.581.153-3.092.418-4.48h5.786v8.96H18.67a21.845 21.845 0 0 1-.47-4.48zm8.06-12.847c2.327.52 4.266 3 5.327 6.53h-5.326v-6.53zm-1.846 0v6.52h-5.327c1.062-3.52 3-6 5.327-6.52zm0 19.184v6.51c-2.184-.571-4.123-3.092-5.235-6.51h5.235zm1.847 6.51v-6.51h5.235c-1.113 3.418-3.051 5.939-5.235 6.51zm0-8.367v-8.96h5.786c.275 1.388.418 2.899.418 4.48a21.15 21.15 0 0 1-.48 4.48h-5.724zm7.673-8.96h3.47a13.119 13.119 0 0 1-.01 8.96h-3.5c.275-1.419.418-2.919.418-4.48a26.17 26.17 0 0 0-.378-4.48zm-14.02-7.724l.316-.122c-1.337 1.47-2.398 3.54-3.071 6.01h-3.796a13.085 13.085 0 0 1 6.55-5.888zm-6.551 18.54h3.847c.714 2.5 1.847 4.603 3.245 6.103a13.2 13.2 0 0 1-7.092-6.102zM30.65 36.89c1.193-1.449 2.163-3.378 2.806-5.602h3.102a13.213 13.213 0 0 1-5.908 5.602z"></path></g></svg> 