<?xml version="1.0" encoding="UTF-8"?> <svg xmlns="http://www.w3.org/2000/svg" width="50" height="50" viewBox="0 0 50 50"><g fill="none" fill-rule="nonzero"><circle cx="24.955" cy="24.992" r="10.908" fill="#3C92CA"></circle><path fill="#000" d="M6.281 25.9a2.774 2.774 0 0 1-.53 1.765L.883 34.461a4.67 4.67 0 0 0 .5 6.051l8.082 8.082a4.678 4.678 0 0 0 3.327 1.377c.98 0 1.928-.306 2.724-.877l6.816-4.867a2.807 2.807 0 0 1 1.755-.531c.307.01.613.02.919.02 5 0 9.704-1.949 13.235-5.48A18.774 18.774 0 0 0 43.7 24.085a2.763 2.763 0 0 1 .53-1.755l4.868-6.817a4.695 4.695 0 0 0-.5-6.05L40.516 1.38A4.678 4.678 0 0 0 37.189.002c-.99 0-1.928.306-2.734.878l-6.796 4.867a2.774 2.774 0 0 1-1.765.53c-.317-.02-.643-.02-.96-.02-4.98 0-9.663 1.939-13.193 5.47A18.696 18.696 0 0 0 6.28 25.9zm1.847-.092a16.815 16.815 0 0 1 4.908-12.755 16.687 16.687 0 0 1 11.888-4.929c.286 0 .582.01.868.02a4.677 4.677 0 0 0 2.938-.866l6.796-4.868a2.847 2.847 0 0 1 1.653-.53c.766 0 1.48.296 2.01.836l8.082 8.082c.99.99 1.112 2.53.306 3.663l-4.867 6.817a4.638 4.638 0 0 0-.867 2.918 16.9 16.9 0 0 1-4.919 12.755 16.756 16.756 0 0 1-11.928 4.939c-.276 0-.551-.01-.827-.02a4.638 4.638 0 0 0-2.918.867l-6.817 4.867c-.49.347-1.06.53-1.653.53-.765 0-1.48-.295-2.01-.836L2.69 39.216a2.85 2.85 0 0 1-.306-3.673l4.868-6.796a4.66 4.66 0 0 0 .877-2.939z"></path><path fill="#000" d="M30.077 16.4a.862.862 0 0 0 .47.133.919.919 0 0 0 .47-1.714.921.921 0 0 0-1.266.326.918.918 0 0 0 .326 1.255zM30.098 33.594a.928.928 0 0 0-.327 1.265.91.91 0 0 0 .796.45c.163 0 .327-.042.47-.133a.918.918 0 0 0 .316-1.266.904.904 0 0 0-1.255-.316zM15.465 30.43a.92.92 0 0 0-.235 1.286c.184.266.47.398.766.398a.897.897 0 0 0 .52-.163.92.92 0 0 0 .235-1.286.929.929 0 0 0-1.286-.234zM14.292 22.655a.927.927 0 0 0 1.163-.612.915.915 0 0 0-.612-1.153.915.915 0 0 0-1.154.612c-.163.49.113 1 .603 1.153zM14.077 25.93c.51 0 .929-.418.929-.928a.917.917 0 0 0-.929-.918.917.917 0 0 0-.918.928c0 .51.408.919.918.919zM21.057 15.737a.92.92 0 0 0 .857-1.255.92.92 0 0 0-1.194-.531.92.92 0 0 0-.53 1.194c.142.367.5.592.867.592zM18.802 32.86a.924.924 0 0 0-1.296.152.924.924 0 0 0 .153 1.296.933.933 0 0 0 .571.204c.276 0 .541-.122.725-.357a.924.924 0 0 0-.153-1.296zM18.21 17.36a.855.855 0 0 0 .571-.205.924.924 0 0 0 .153-1.296.924.924 0 0 0-1.296-.153.928.928 0 1 0 .571 1.653zM15.455 19.584a.897.897 0 0 0 .52.163.944.944 0 0 0 .766-.398.929.929 0 0 0-.235-1.286.922.922 0 0 0-1.286.245.91.91 0 0 0 .235 1.276zM27.322 34.716a.922.922 0 0 0-.684 1.113c.103.428.48.714.898.714.072 0 .143-.01.215-.02a.922.922 0 0 0 .683-1.113c-.122-.5-.622-.816-1.112-.694zM27.302 15.278c.071.02.143.03.214.03a.924.924 0 0 0 .898-.714.933.933 0 0 0-.684-1.112.92.92 0 0 0-1.112.683c-.112.49.194 1 .684 1.113zM15.445 27.971a.919.919 0 0 0-1.153-.612.919.919 0 0 0-.613 1.153.927.927 0 0 0 1.164.612.917.917 0 0 0 .602-1.153zM21.404 34.329a.928.928 0 0 0-1.194.53.928.928 0 0 0 .857 1.255.923.923 0 0 0 .337-1.786zM24.332 34.971a.925.925 0 1 0-.112 1.847h.061a.925.925 0 0 0 .051-1.847zM24.25 15.033h.062c.51-.031.898-.48.857-.98a.916.916 0 0 0-.98-.857.916.916 0 0 0-.857.98c.031.48.44.857.919.857zM32.475 32.992a.896.896 0 0 0 .623.235c.255 0 .5-.103.683-.307 4.01-4.449 4.01-11.408 0-15.857a.932.932 0 0 0-1.306-.071.932.932 0 0 0-.071 1.306c3.388 3.745 3.388 9.622 0 13.378a.943.943 0 0 0 .071 1.316z"></path></g></svg> 